<?xml version="1.0" encoding="UTF-8"?>
<!DOCTYPE svg PUBLIC "-//W3C//DTD SVG 1.1//EN" "http://www.w3.org/Graphics/SVG/1.1/DTD/svg11.dtd">
<svg xmlns="http://www.w3.org/2000/svg" version="1.1" width="260px" height="300px" style="shape-rendering:geometricPrecision; text-rendering:geometricPrecision; image-rendering:optimizeQuality; fill-rule:evenodd; clip-rule:evenodd" xmlns:xlink="http://www.w3.org/1999/xlink">
    <g>
        <path style="opacity:0.957" fill="#ebb749" d="M 126.5,0.5 C 168.924,24.0724 211.258,47.9057 253.5,72C 256.588,73.5824 258.255,76.0824 258.5,79.5C 257.847,127.821 257.181,176.155 256.5,224.5C 214.163,249.172 171.83,273.839 129.5,298.5C 86.5377,275.019 43.871,251.019 1.5,226.5C 0.166667,176.167 0.166667,125.833 1.5,75.5C 43.3958,50.7256 85.0625,25.7256 126.5,0.5 Z M 31.5,135.5 C 36.1729,130.494 40.8396,125.494 45.5,120.5C 43.7256,119.813 42.0589,118.98 40.5,118C 43.0816,118.255 45.7482,118.422 48.5,118.5C 52.2374,112.07 56.7374,106.07 62,100.5C 65.0774,95.3056 68.4107,90.3056 72,85.5C 74.4541,83.987 76.1207,84.6537 77,87.5C 77.7206,97.5015 76.3872,107.168 73,116.5C 71.5114,123.429 70.6781,130.429 70.5,137.5C 67.383,137.358 64.883,136.024 63,133.5C 62.7368,129.165 62.9035,124.832 63.5,120.5C 58.6145,120.752 53.7812,120.419 49,119.5C 43.5708,125.436 37.7374,130.769 31.5,135.5 Z M 123.5,115.5 C 119.002,122.491 115.002,129.824 111.5,137.5C 108.124,136.423 106.458,134.09 106.5,130.5C 112,114.916 117.334,99.5831 122.5,84.5C 126.735,85.2344 129.068,87.7344 129.5,92C 126.718,99.0751 124.051,106.242 121.5,113.5C 121.747,114.713 122.414,115.38 123.5,115.5 Z M 160.5,84.5 C 167.603,85.8673 168.937,89.3673 164.5,95C 162.251,95.8632 160.418,95.3632 159,93.5C 158.404,90.3137 158.904,87.3137 160.5,84.5 Z M 212.5,109.5 C 206.34,118.477 200.674,127.811 195.5,137.5C 191.416,135.44 189.916,132.107 191,127.5C 196.399,113.136 201.899,98.803 207.5,84.5C 211.172,85.6708 213.172,88.1708 213.5,92C 211.71,99.54 209.044,106.707 205.5,113.5C 205.833,114.167 206.167,114.833 206.5,115.5C 208.188,113.146 210.188,111.146 212.5,109.5 Z M 91.5,103.5 C 94.4431,103.647 97.2764,104.313 100,105.5C 103.166,103.777 105.333,104.611 106.5,108C 104.015,111.823 101.515,115.656 99,119.5C 98.5948,115.787 98.5948,112.121 99,108.5C 98.2588,107.359 97.4255,107.359 96.5,108.5C 92.331,112.178 91.4977,116.512 94,121.5C 95.973,124.464 97.473,127.631 98.5,131C 97.3687,135.565 94.3687,137.732 89.5,137.5C 85.7919,137.081 82.2919,136.081 79,134.5C 78.3333,133.833 78.3333,133.167 79,132.5C 82.7153,135.076 86.882,136.076 91.5,135.5C 89.641,131.104 87.4744,126.771 85,122.5C 82.7619,116.985 83.0952,111.651 86,106.5C 87.8761,105.391 89.7095,104.391 91.5,103.5 Z M 135.5,135.5 C 131.808,137.586 128.308,136.919 125,133.5C 124.362,130.464 124.528,127.464 125.5,124.5C 127.635,119.729 129.635,114.896 131.5,110C 131.15,108.743 130.483,108.409 129.5,109C 128.002,111.664 126.002,113.83 123.5,115.5C 125.781,110.303 129.447,106.303 134.5,103.5C 137.288,104.792 139.622,106.626 141.5,109C 137.657,117.702 134.324,126.536 131.5,135.5C 132.833,135.5 134.167,135.5 135.5,135.5 Z M 154.5,135.5 C 151.281,137.969 148.115,137.635 145,134.5C 144.261,132.779 143.427,131.113 142.5,129.5C 140.576,132.062 138.242,134.062 135.5,135.5C 140.959,129.189 145.459,122.189 149,114.5C 150.743,111.043 151.743,107.377 152,103.5C 156.037,104.704 158.537,107.371 159.5,111.5C 156.738,117.392 154.238,123.392 152,129.5C 151.505,131.473 151.338,133.473 151.5,135.5C 152.5,135.5 153.5,135.5 154.5,135.5 Z M 163.5,133.5 C 167.3,135.143 171.3,135.81 175.5,135.5C 175.657,134.127 175.49,132.793 175,131.5C 172.305,127.97 169.805,124.304 167.5,120.5C 164.861,124.639 162.028,128.639 159,132.5C 157.871,134.141 156.371,135.141 154.5,135.5C 160.926,127.312 165.759,118.312 169,108.5C 173.187,103.396 178.187,102.396 184,105.5C 187.154,103.655 189.321,104.322 190.5,107.5C 188.234,111.609 185.734,115.609 183,119.5C 182.814,115.484 182.814,111.484 183,107.5C 177.367,110.422 175.701,114.756 178,120.5C 186.202,134.312 182.368,139.478 166.5,136C 165.058,135.623 164.058,134.79 163.5,133.5 Z M 233.5,116.5 C 230.816,124.015 226.483,130.515 220.5,136C 216.445,137.877 212.945,137.044 210,133.5C 209.597,124.942 211.764,117.109 216.5,110C 215.318,108.232 213.985,108.065 212.5,109.5C 214.879,103.91 218.546,102.743 223.5,106C 224.43,107.194 225.097,108.527 225.5,110C 221.215,118.022 218.215,126.522 216.5,135.5C 218.903,135.607 220.736,134.607 222,132.5C 225.61,126.923 229.443,121.59 233.5,116.5 Z M 40.5,162.5 C 45.0213,162.687 47.688,165.02 48.5,169.5C 46.8406,172.095 46.5072,174.762 47.5,177.5C 51.3348,172.168 55.6682,167.335 60.5,163C 67.1111,162.27 70.7778,165.27 71.5,172C 70.9891,176.522 69.4891,180.689 67,184.5C 63.2638,187.749 59.4304,190.749 55.5,193.5C 62.5348,196.707 64.2015,201.707 60.5,208.5C 52.2214,216.157 43.2214,217.157 33.5,211.5C 31.7804,216.429 29.2804,216.763 26,212.5C 25.3988,210.863 24.8988,209.197 24.5,207.5C 28.9008,196.465 33.4008,185.465 38,174.5C 39.772,170.687 40.6053,166.687 40.5,162.5 Z M 222.5,213.5 C 220.476,215.881 218.143,216.048 215.5,214C 212.817,212.155 211.15,209.655 210.5,206.5C 207.743,208.936 205.077,211.27 202.5,213.5C 207.562,207.261 212.062,200.594 216,193.5C 220.17,183.162 224.336,172.828 228.5,162.5C 232.172,163.671 234.172,166.171 234.5,170C 229.939,180.744 225.606,191.578 221.5,202.5C 220.078,206.034 219.411,209.7 219.5,213.5C 220.5,213.5 221.5,213.5 222.5,213.5 Z M 136.5,213.5 C 132.437,215.772 128.937,214.772 126,210.5C 126.795,202.593 128.962,194.927 132.5,187.5C 132.167,187.167 131.833,186.833 131.5,186.5C 128.509,189.661 125.675,192.995 123,196.5C 118.978,202.543 115.478,208.877 112.5,215.5C 109.273,213.397 107.273,210.397 106.5,206.5C 103.743,208.936 101.077,211.27 98.5,213.5C 104.152,206.207 109.319,198.541 114,190.5C 114.879,187.182 115.713,183.848 116.5,180.5C 121.838,182.925 124.172,186.925 123.5,192.5C 127.14,188.194 131.14,184.194 135.5,180.5C 138.833,181.833 141.167,184.167 142.5,187.5C 138.968,195.433 135.634,203.433 132.5,211.5C 133.32,213.111 134.654,213.778 136.5,213.5 Z M 136.5,213.5 C 140.976,207.901 144.976,201.901 148.5,195.5C 148.996,183.468 154.829,179.135 166,182.5C 170.92,180.922 172.753,182.589 171.5,187.5C 168.843,190.147 166.677,193.147 165,196.5C 164.909,192.747 164.742,189.08 164.5,185.5C 160.314,187.538 158.481,190.871 159,195.5C 160.3,200.095 162.133,204.428 164.5,208.5C 163.248,212.971 160.248,215.304 155.5,215.5C 151.141,215.459 147.474,213.959 144.5,211C 147.29,211.744 150.123,212.577 153,213.5C 156.441,214.06 157.774,212.727 157,209.5C 154.074,205.963 151.407,202.296 149,198.5C 146.099,204.567 141.932,209.567 136.5,213.5 Z M 79.5,213.5 C 76.1102,215.634 72.9435,214.967 70,211.5C 67.5532,204.15 68.8865,197.483 74,191.5C 76.9864,187.758 80.4864,184.592 84.5,182C 90.4915,180.149 94.1582,182.315 95.5,188.5C 93.7612,188.594 91.7612,188.761 89.5,189C 81.1727,194.997 76.8394,202.997 76.5,213C 77.448,213.483 78.448,213.649 79.5,213.5 Z M 183.5,213.5 C 180.11,215.634 176.944,214.967 174,211.5C 171.553,204.15 172.887,197.483 178,191.5C 180.986,187.758 184.486,184.592 188.5,182C 194.492,180.149 198.158,182.315 199.5,188.5C 197.761,188.594 195.761,188.761 193.5,189C 185.173,194.997 180.839,202.997 180.5,213C 181.448,213.483 182.448,213.649 183.5,213.5 Z M 222.5,213.5 C 227.779,206.701 232.946,199.701 238,192.5C 235.781,201.575 230.615,208.575 222.5,213.5 Z M 98.5,213.5 C 95.9453,215.807 93.2786,215.64 90.5,213C 88.578,211.58 87.2446,209.747 86.5,207.5C 84.7407,210.266 82.4073,212.266 79.5,213.5C 84.503,206.991 89.3363,200.324 94,193.5C 97.3906,194.058 99.2239,196.058 99.5,199.5C 97.6851,203.755 96.5184,208.089 96,212.5C 96.6708,213.252 97.5041,213.586 98.5,213.5 Z M 202.5,213.5 C 199.945,215.807 197.279,215.64 194.5,213C 192.578,211.58 191.245,209.747 190.5,207.5C 188.741,210.266 186.407,212.266 183.5,213.5C 188.503,206.991 193.336,200.324 198,193.5C 201.391,194.058 203.224,196.058 203.5,199.5C 201.685,203.755 200.518,208.089 200,212.5C 200.671,213.252 201.504,213.586 202.5,213.5 Z" />
    </g>
    <g>
        <path style="opacity:0.727" fill="#ebb748" d="M 67.5,93.5 C 68.6491,93.7911 69.3158,94.6244 69.5,96C 68.3889,103.361 66.7222,110.861 64.5,118.5C 59.7863,118.827 55.1196,118.493 50.5,117.5C 56.994,110.019 62.6607,102.019 67.5,93.5 Z" />
    </g>
    <g>
        <path style="opacity:0.78" fill="#ecb748" d="M 61.5,163.5 C 62.5,163.5 63.5,163.5 64.5,163.5C 62.7683,176.652 55.935,185.985 44,191.5C 43.1667,191.167 42.3333,190.833 41.5,190.5C 46.4809,180.185 53.1475,171.185 61.5,163.5 Z" />
    </g>
    <g>
        <path style="opacity:0.824" fill="#ecb749" d="M 39.5,193.5 C 49.0766,194.061 52.0766,198.727 48.5,207.5C 43.8257,210.702 38.8257,211.702 33.5,210.5C 34.4629,204.412 36.4629,198.745 39.5,193.5 Z" />
    </g>
</svg>