<?xml version="1.0" standalone="no"?>
<!DOCTYPE svg PUBLIC "-//W3C//DTD SVG 20010904//EN" "http://www.w3.org/TR/2001/REC-SVG-20010904/DTD/svg10.dtd">
<svg version="1.0" xmlns="http://www.w3.org/2000/svg" width="600.000000pt" height="600.000000pt" viewBox="0 0 600.000000 600.000000" preserveAspectRatio="xMidYMid meet">

        <g transform="translate(0.000000,600.000000) scale(0.100000,-0.100000)" fill="#000000" stroke="none">
                <path d="M1026 4110 c-245 -147 -470 -253 -776 -365 -41 -15 -80 -32 -86 -36
-45 -35 -42 -602 5 -794 5 -22 17 -74 26 -115 47 -210 163 -475 286 -650 137
-197 337 -380 564 -517 124 -75 135 -78 177 -57 172 87 329 203 483 358 222
222 355 462 458 826 60 211 96 637 67 805 -27 166 -16 146 -95 172 -269 90
-677 287 -890 430 -27 18 -54 33 -60 33 -5 0 -77 -41 -159 -90z m122 -1760
l-3 -521 -92 63 -93 63 0 392 0 393 33 14 c29 13 11 14 -183 14 -118 0 -206
-3 -194 -5 15 -3 29 -25 53 -86 18 -45 49 -110 67 -145 l34 -63 0 -159 c0 -88
-3 -160 -7 -160 -14 1 -129 162 -180 251 -100 175 -175 408 -207 638 -20 143
-29 348 -19 430 l8 64 155 63 c156 63 468 215 570 277 l55 33 3 -518 c1 -285
1 -752 0 -1038z m385 1391 c109 -55 258 -123 331 -152 l134 -53 6 -44 c9 -67
7 -254 -4 -362 -17 -163 -19 -170 -53 -189 -16 -9 -39 -24 -49 -34 -19 -18
-19 -19 6 -62 14 -24 26 -55 26 -68 0 -79 -133 -368 -235 -512 -109 -154 -294
-325 -447 -415 l-38 -22 0 1042 0 1042 63 -37 c34 -20 151 -80 260 -134z" />
                <path d="M830 3514 c-63 -30 -153 -69 -199 -86 l-83 -33 5 -135 c3 -74 12
-170 18 -212 l13 -78 188 0 188 0 0 300 c0 165 -3 300 -7 299 -5 0 -60 -25
-123 -55z" />
                <path d="M1409 3563 c-2 -4 -3 -140 -1 -300 l3 -293 184 0 183 0 6 28 c12 60
25 183 31 284 7 106 7 108 -17 118 -12 5 -99 44 -193 86 -93 41 -175 78 -181
80 -7 3 -14 2 -15 -3z" />
                <path d="M1372 2754 c15 -8 30 -25 33 -37 3 -12 4 -127 3 -255 -2 -127 0 -231
3 -230 15 6 105 119 151 188 56 85 118 208 147 293 l20 57 -192 0 c-176 -1
-190 -2 -165 -16z" />
        </g>
</svg>