<?xml version="1.0" encoding="UTF-8"?>
<!DOCTYPE svg PUBLIC "-//W3C//DTD SVG 1.1//EN" "http://www.w3.org/Graphics/SVG/1.1/DTD/svg11.dtd">
<svg xmlns="http://www.w3.org/2000/svg" version="1.1" width="300px" height="300px" style="shape-rendering:geometricPrecision; text-rendering:geometricPrecision; image-rendering:optimizeQuality; fill-rule:evenodd; clip-rule:evenodd" xmlns:xlink="http://www.w3.org/1999/xlink">
<g><path style="opacity:0.012" fill="#161616" d="M 123.5,1.5 C 119.162,1.62192 118.828,1.95526 122.5,2.5C 121.432,3.43448 120.099,3.76781 118.5,3.5C 117.5,2.16667 116.5,2.16667 115.5,3.5C 115.167,3.5 114.833,3.5 114.5,3.5C 113.209,3.26269 112.209,3.59603 111.5,4.5C 111.167,4.5 110.833,4.5 110.5,4.5C 109.508,4.32842 108.842,4.66175 108.5,5.5C 108.167,5.5 107.833,5.5 107.5,5.5C 106.448,5.64945 105.448,5.48278 104.5,5C 110.8,2.32594 117.134,1.15927 123.5,1.5 Z"/></g>
<g><path style="opacity:0.994" fill="#fcfcfc" d="M 139.5,-0.5 C 146.167,-0.5 152.833,-0.5 159.5,-0.5C 164.646,0.551416 169.979,1.21808 175.5,1.5C 175.5,2.16667 175.833,2.5 176.5,2.5C 177.568,3.43448 178.901,3.76781 180.5,3.5C 181.5,3.5 182.5,3.5 183.5,3.5C 183.833,3.5 184.167,3.5 184.5,3.5C 184.5,4.16667 184.833,4.5 185.5,4.5C 185.833,4.5 186.167,4.5 186.5,4.5C 186.833,4.5 187.167,4.5 187.5,4.5C 187.833,4.5 188.167,4.5 188.5,4.5C 188.5,5.16667 188.833,5.5 189.5,5.5C 189.833,5.5 190.167,5.5 190.5,5.5C 190.833,5.5 191.167,5.5 191.5,5.5C 194.602,6.03022 197.936,7.03022 201.5,8.5C 201.5,9.16667 201.833,9.5 202.5,9.5C 202.842,10.3382 203.508,10.6716 204.5,10.5C 204.842,11.3382 205.508,11.6716 206.5,11.5C 206.833,11.5 207.167,11.5 207.5,11.5C 207.833,11.5 208.167,11.5 208.5,11.5C 208.5,12.1667 208.833,12.5 209.5,12.5C 209.833,12.5 210.167,12.5 210.5,12.5C 210.5,13.1667 210.833,13.5 211.5,13.5C 211.833,13.5 212.167,13.5 212.5,13.5C 212.5,14.1667 212.833,14.5 213.5,14.5C 213.833,14.5 214.167,14.5 214.5,14.5C 215.833,15.1667 217.167,15.8333 218.5,16.5C 218.5,17.1667 218.833,17.5 219.5,17.5C 219.833,17.5 220.167,17.5 220.5,17.5C 220.5,18.1667 220.833,18.5 221.5,18.5C 221.842,19.3382 222.508,19.6716 223.5,19.5C 223.833,19.5 224.167,19.5 224.5,19.5C 224.5,20.1667 224.833,20.5 225.5,20.5C 225.833,20.5 226.167,20.5 226.5,20.5C 226.5,21.1667 226.833,21.5 227.5,21.5C 227.5,22.1667 227.833,22.5 228.5,22.5C 228.833,22.5 229.167,22.5 229.5,22.5C 229.5,23.1667 229.833,23.5 230.5,23.5C 231.29,24.4013 232.29,25.0679 233.5,25.5C 233.5,26.1667 233.833,26.5 234.5,26.5C 235.167,26.8333 235.833,27.1667 236.5,27.5C 236.842,28.3382 237.508,28.6716 238.5,28.5C 238.833,29.5 239.5,30.1667 240.5,30.5C 241.436,31.9744 242.77,32.9744 244.5,33.5C 244.5,34.1667 244.833,34.5 245.5,34.5C 246.29,35.4013 247.29,36.0679 248.5,36.5C 248.833,37.5 249.5,38.1667 250.5,38.5C 251.167,39.8333 252.167,40.8333 253.5,41.5C 253.5,42.1667 253.833,42.5 254.5,42.5C 254.5,43.1667 254.833,43.5 255.5,43.5C 255.5,44.1667 255.833,44.5 256.5,44.5C 256.5,45.1667 256.833,45.5 257.5,45.5C 259.167,47.8333 261.167,49.8333 263.5,51.5C 263.328,52.4916 263.662,53.1583 264.5,53.5C 264.5,54.1667 264.833,54.5 265.5,54.5C 267.147,57.4735 269.147,60.1401 271.5,62.5C 271.5,63.1667 271.833,63.5 272.5,63.5C 272.5,64.1667 272.833,64.5 273.5,64.5C 276.11,69.7671 279.11,74.7671 282.5,79.5C 283.833,81.8333 285.167,84.1667 286.5,86.5C 285.167,87.1667 285.167,87.8333 286.5,88.5C 286.328,89.4916 286.662,90.1583 287.5,90.5C 287.328,91.4916 287.662,92.1583 288.5,92.5C 288.328,93.4916 288.662,94.1583 289.5,94.5C 289.402,96.5529 290.069,98.2196 291.5,99.5C 292.076,104.809 293.409,109.809 295.5,114.5C 295.232,116.099 295.566,117.432 296.5,118.5C 296.232,120.099 296.566,121.432 297.5,122.5C 297.741,127.694 298.407,132.694 299.5,137.5C 299.5,145.833 299.5,154.167 299.5,162.5C 298.356,166.964 297.69,171.63 297.5,176.5C 296.549,177.919 296.216,179.585 296.5,181.5C 295.566,182.568 295.232,183.901 295.5,185.5C 294.596,186.209 294.263,187.209 294.5,188.5C 293.596,189.209 293.263,190.209 293.5,191.5C 293.5,191.833 293.5,192.167 293.5,192.5C 291.899,195.55 290.899,198.884 290.5,202.5C 289.662,202.842 289.328,203.508 289.5,204.5C 288.662,204.842 288.328,205.508 288.5,206.5C 287.833,206.5 287.5,206.833 287.5,207.5C 286.662,207.842 286.328,208.508 286.5,209.5C 286.5,209.833 286.5,210.167 286.5,210.5C 286.5,210.833 286.5,211.167 286.5,211.5C 285.833,211.5 285.5,211.833 285.5,212.5C 285.5,212.833 285.5,213.167 285.5,213.5C 284.662,213.842 284.328,214.508 284.5,215.5C 282.992,217.181 281.992,219.181 281.5,221.5C 280.662,221.842 280.328,222.508 280.5,223.5C 279.833,223.5 279.5,223.833 279.5,224.5C 278.662,224.842 278.328,225.508 278.5,226.5C 277.833,226.5 277.5,226.833 277.5,227.5C 276.833,227.5 276.5,227.833 276.5,228.5C 276.5,228.833 276.5,229.167 276.5,229.5C 275.326,230.514 274.66,231.847 274.5,233.5C 273.833,233.5 273.5,233.833 273.5,234.5C 272.833,234.5 272.5,234.833 272.5,235.5C 271.662,235.842 271.328,236.508 271.5,237.5C 270.833,237.5 270.5,237.833 270.5,238.5C 269.833,238.5 269.5,238.833 269.5,239.5C 268.833,239.5 268.5,239.833 268.5,240.5C 267.11,241.899 266.11,243.566 265.5,245.5C 264.833,245.5 264.5,245.833 264.5,246.5C 263.833,246.5 263.5,246.833 263.5,247.5C 262.833,247.5 262.5,247.833 262.5,248.5C 261.833,248.5 261.5,248.833 261.5,249.5C 260.833,249.5 260.5,249.833 260.5,250.5C 259.833,250.5 259.5,250.833 259.5,251.5C 258.833,251.5 258.5,251.833 258.5,252.5C 257.833,252.5 257.5,252.833 257.5,253.5C 256.833,253.5 256.5,253.833 256.5,254.5C 256.5,255.167 256.167,255.5 255.5,255.5C 254.833,255.5 254.5,255.833 254.5,256.5C 253.833,256.5 253.5,256.833 253.5,257.5C 252.833,257.5 252.5,257.833 252.5,258.5C 251.833,258.5 251.5,258.833 251.5,259.5C 250.833,259.5 250.5,259.833 250.5,260.5C 249.833,260.5 249.5,260.833 249.5,261.5C 248.833,261.5 248.5,261.833 248.5,262.5C 247.833,262.5 247.5,262.833 247.5,263.5C 246.5,264.167 245.5,264.833 244.5,265.5C 243.167,266.167 242.167,267.167 241.5,268.5C 240.508,268.328 239.842,268.662 239.5,269.5C 238.833,269.5 238.5,269.833 238.5,270.5C 238.167,270.5 237.833,270.5 237.5,270.5C 236.833,270.5 236.5,270.833 236.5,271.5C 235.833,271.5 235.5,271.833 235.5,272.5C 234.833,272.5 234.5,272.833 234.5,273.5C 233.167,274.5 231.833,275.5 230.5,276.5C 230.167,275.167 229.833,275.167 229.5,276.5C 229.167,276.5 228.833,276.5 228.5,276.5C 227.833,276.5 227.5,276.833 227.5,277.5C 226.833,277.5 226.5,277.833 226.5,278.5C 226.167,278.5 225.833,278.5 225.5,278.5C 224.833,278.5 224.5,278.833 224.5,279.5C 223.833,279.5 223.5,279.833 223.5,280.5C 222.508,280.328 221.842,280.662 221.5,281.5C 221.167,281.5 220.833,281.5 220.5,281.5C 219.833,281.5 219.5,281.833 219.5,282.5C 217.326,282.75 215.659,283.75 214.5,285.5C 214.167,284.167 213.833,284.167 213.5,285.5C 213.167,285.5 212.833,285.5 212.5,285.5C 211.833,285.5 211.5,285.833 211.5,286.5C 211.167,286.5 210.833,286.5 210.5,286.5C 209.833,286.5 209.5,286.833 209.5,287.5C 209.167,287.5 208.833,287.5 208.5,287.5C 208.167,287.5 207.833,287.5 207.5,287.5C 206.508,287.328 205.842,287.662 205.5,288.5C 204.833,288.5 204.5,288.833 204.5,289.5C 203.508,289.328 202.842,289.662 202.5,290.5C 198.943,291.955 195.609,292.955 192.5,293.5C 188.5,293.833 188.5,294.167 192.5,294.5C 191.432,295.434 190.099,295.768 188.5,295.5C 188.5,294.833 188.167,294.5 187.5,294.5C 187.167,294.5 186.833,294.5 186.5,294.5C 185.833,294.5 185.5,294.833 185.5,295.5C 185.167,295.5 184.833,295.5 184.5,295.5C 183.209,295.263 182.209,295.596 181.5,296.5C 179.585,296.216 177.919,296.549 176.5,297.5C 174.585,297.216 172.919,297.549 171.5,298.5C 168.287,298.19 165.287,298.523 162.5,299.5C 154.167,299.5 145.833,299.5 137.5,299.5C 132.694,298.407 127.694,297.741 122.5,297.5C 122.5,296.833 122.167,296.5 121.5,296.5C 120.432,295.566 119.099,295.232 117.5,295.5C 116.5,295.5 115.5,295.5 114.5,295.5C 114.167,295.5 113.833,295.5 113.5,295.5C 112.791,294.596 111.791,294.263 110.5,294.5C 110.5,293.833 110.167,293.5 109.5,293.5C 108.833,293.5 108.167,293.5 107.5,293.5C 104.522,291.988 101.522,290.988 98.5,290.5C 98.1583,289.662 97.4916,289.328 96.5,289.5C 95.5084,289.672 94.8417,289.338 94.5,288.5C 93.791,287.596 92.791,287.263 91.5,287.5C 91.1667,287.5 90.8333,287.5 90.5,287.5C 90.1583,286.662 89.4916,286.328 88.5,286.5C 88.1667,286.5 87.8333,286.5 87.5,286.5C 87.5,285.833 87.1667,285.5 86.5,285.5C 86.1667,285.5 85.8333,285.5 85.5,285.5C 85.1667,284.167 84.8333,284.167 84.5,285.5C 83.3406,283.75 81.674,282.75 79.5,282.5C 79.1583,281.662 78.4916,281.328 77.5,281.5C 77.5,281.167 77.5,280.833 77.5,280.5C 77.1583,279.662 76.4916,279.328 75.5,279.5C 75.1667,279.5 74.8333,279.5 74.5,279.5C 74.5,278.833 74.1667,278.5 73.5,278.5C 73.1667,278.5 72.8333,278.5 72.5,278.5C 72.5,277.833 72.1667,277.5 71.5,277.5C 71.5,276.833 71.1667,276.5 70.5,276.5C 70.1667,276.5 69.8333,276.5 69.5,276.5C 69.1667,275.167 68.8333,275.167 68.5,276.5C 67.8333,275.833 67.1667,275.167 66.5,274.5C 66.5,273.833 66.1667,273.5 65.5,273.5C 65.5,272.833 65.1667,272.5 64.5,272.5C 64.1667,272.5 63.8333,272.5 63.5,272.5C 63.5,271.833 63.1667,271.5 62.5,271.5C 62.1583,270.662 61.4916,270.328 60.5,270.5C 58.9095,268.367 56.9095,266.701 54.5,265.5C 54.5,264.833 54.1667,264.5 53.5,264.5C 52.7095,263.599 51.7095,262.932 50.5,262.5C 49.5,260.833 48.1667,259.5 46.5,258.5C 46.5,257.833 46.1667,257.5 45.5,257.5C 45.5,256.833 45.1667,256.5 44.5,256.5C 44.5,255.833 44.1667,255.5 43.5,255.5C 43.5,254.833 43.1667,254.5 42.5,254.5C 42.5,253.833 42.1667,253.5 41.5,253.5C 40.1667,251.5 38.5,249.833 36.5,248.5C 36.1667,247.833 35.8333,247.167 35.5,246.5C 35.5,245.833 35.1667,245.5 34.5,245.5C 34.5,244.833 34.1667,244.5 33.5,244.5C 32.9744,242.77 31.9744,241.436 30.5,240.5C 29.4884,239.128 28.4884,237.795 27.5,236.5C 26.1535,234.463 24.8202,232.463 23.5,230.5C 22.8333,229.167 22.1667,227.833 21.5,226.5C 21.5,225.833 21.1667,225.5 20.5,225.5C 20.5,224.833 20.1667,224.5 19.5,224.5C 19.6716,223.508 19.3382,222.842 18.5,222.5C 18.5,221.833 18.1667,221.5 17.5,221.5C 16.7362,218.982 15.7362,216.649 14.5,214.5C 14.3404,212.847 13.6737,211.514 12.5,210.5C 12.6716,209.508 12.3382,208.842 11.5,208.5C 9.47313,202.748 7.47313,197.081 5.5,191.5C 5.73731,190.209 5.40397,189.209 4.5,188.5C 4.5,188.167 4.5,187.833 4.5,187.5C 4.73731,186.209 4.40397,185.209 3.5,184.5C 2.03555,176.052 0.702221,167.719 -0.5,159.5C -0.5,153.167 -0.5,146.833 -0.5,140.5C 0.690932,133.33 1.69093,125.997 2.5,118.5C 3.40397,117.791 3.73731,116.791 3.5,115.5C 3.5,115.167 3.5,114.833 3.5,114.5C 4.40397,113.791 4.73731,112.791 4.5,111.5C 5.40397,110.791 5.73731,109.791 5.5,108.5C 5.5,108.167 5.5,107.833 5.5,107.5C 8.61591,98.8296 11.9492,90.163 15.5,81.5C 18.0692,78.039 20.4026,74.3723 22.5,70.5C 23.1667,70.5 23.5,70.1667 23.5,69.5C 24.1098,68.609 24.4431,67.609 24.5,66.5C 25.9744,65.5637 26.9744,64.2303 27.5,62.5C 28.1667,62.5 28.5,62.1667 28.5,61.5C 30.8532,59.1401 32.8532,56.4735 34.5,53.5C 35.1667,53.5 35.5,53.1667 35.5,52.5C 36.1667,52.5 36.5,52.1667 36.5,51.5C 37.1667,51.5 37.5,51.1667 37.5,50.5C 37.5,50.1667 37.5,49.8333 37.5,49.5C 41.8333,45.8333 45.8333,41.8333 49.5,37.5C 50.7095,37.0679 51.7095,36.4013 52.5,35.5C 53.1667,35.5 53.5,35.1667 53.5,34.5C 54.1667,34.5 54.5,34.1667 54.5,33.5C 56.754,32.8763 58.4206,31.543 59.5,29.5C 60.1667,29.1667 60.8333,28.8333 61.5,28.5C 62.1667,28.5 62.5,28.1667 62.5,27.5C 62.8333,27.5 63.1667,27.5 63.5,27.5C 64.1667,27.5 64.5,27.1667 64.5,26.5C 65.1667,26.5 65.5,26.1667 65.5,25.5C 66.2216,25.0825 66.7216,24.4158 67,23.5C 67.7697,24.5981 68.603,24.5981 69.5,23.5C 70.1667,23.5 70.5,23.1667 70.5,22.5C 71.1667,22.5 71.5,22.1667 71.5,21.5C 71.8333,21.5 72.1667,21.5 72.5,21.5C 73.1667,21.5 73.5,21.1667 73.5,20.5C 74.1667,20.5 74.5,20.1667 74.5,19.5C 74.8333,19.5 75.1667,19.5 75.5,19.5C 76.4916,19.6716 77.1583,19.3382 77.5,18.5C 78.1667,18.5 78.5,18.1667 78.5,17.5C 78.8333,17.5 79.1667,17.5 79.5,17.5C 80.1667,17.5 80.5,17.1667 80.5,16.5C 81.9952,16.0113 83.3285,15.3446 84.5,14.5C 84.8333,14.5 85.1667,14.5 85.5,14.5C 86.1667,14.5 86.5,14.1667 86.5,13.5C 86.8333,13.5 87.1667,13.5 87.5,13.5C 88.1667,13.5 88.5,13.1667 88.5,12.5C 88.8333,12.5 89.1667,12.5 89.5,12.5C 90.1667,12.5 90.5,12.1667 90.5,11.5C 90.8333,11.5 91.1667,11.5 91.5,11.5C 92.1667,11.5 92.5,11.1667 92.5,10.5C 92.8333,10.5 93.1667,10.5 93.5,10.5C 93.8333,10.5 94.1667,10.5 94.5,10.5C 95.4916,10.6716 96.1583,10.3382 96.5,9.5C 100.396,7.65582 104.063,6.32248 107.5,5.5C 107.833,5.5 108.167,5.5 108.5,5.5C 109.492,5.67158 110.158,5.33825 110.5,4.5C 110.833,4.5 111.167,4.5 111.5,4.5C 112.791,4.73731 113.791,4.40397 114.5,3.5C 114.833,3.5 115.167,3.5 115.5,3.5C 116.5,3.5 117.5,3.5 118.5,3.5C 120.099,3.76781 121.432,3.43448 122.5,2.5C 123.167,2.5 123.5,2.16667 123.5,1.5C 129.021,1.21808 134.354,0.551416 139.5,-0.5 Z M 160.5,80.5 C 164.169,80.3318 167.502,81.3318 170.5,83.5C 171.107,83.3764 171.44,83.0431 171.5,82.5C 173.19,82.8564 174.19,83.8564 174.5,85.5C 174.062,85.4346 173.728,85.6012 173.5,86C 174.636,87.1451 175.636,88.3117 176.5,89.5C 176.492,92.5448 176.159,95.5448 175.5,98.5C 174.661,99.6412 173.994,100.974 173.5,102.5C 173.624,103.107 173.957,103.44 174.5,103.5C 174.59,106.152 173.924,108.485 172.5,110.5C 172.631,109.761 172.464,109.094 172,108.5C 170.659,111.022 169.826,113.689 169.5,116.5C 167.733,118.792 166.733,121.458 166.5,124.5C 167.167,123.833 167.833,123.167 168.5,122.5C 167.332,127.324 165.998,131.991 164.5,136.5C 164.279,133.903 163.779,133.903 163,136.5C 162.338,138.813 161.838,141.146 161.5,143.5C 160.661,144.641 159.994,145.974 159.5,147.5C 159.97,148.463 160.637,148.463 161.5,147.5C 161.5,147.833 161.5,148.167 161.5,148.5C 163.893,149.21 166.393,149.877 169,150.5C 169.399,150.272 169.565,149.938 169.5,149.5C 170.167,150.167 170.833,150.833 171.5,151.5C 171.5,152.167 171.833,152.5 172.5,152.5C 171.167,153.167 169.833,153.833 168.5,154.5C 165.813,154.336 163.146,154.503 160.5,155C 162.833,155.333 165.167,155.667 167.5,156C 164.774,156.182 162.107,156.682 159.5,157.5C 158.265,162.647 156.931,167.647 155.5,172.5C 155.657,171.127 155.49,169.793 155,168.5C 154.047,171.432 153.547,174.432 153.5,177.5C 151.989,180.544 151.322,183.878 151.5,187.5C 150.011,191.236 149.344,195.236 149.5,199.5C 149.833,199.5 150.167,199.5 150.5,199.5C 150.331,204.181 149.998,208.848 149.5,213.5C 147.901,213.768 146.568,213.434 145.5,212.5C 146.552,212.649 147.552,212.483 148.5,212C 145.568,210.855 142.568,210.022 139.5,209.5C 138.564,208.026 137.23,207.026 135.5,206.5C 135.167,202.5 134.833,202.5 134.5,206.5C 133.51,202.614 132.51,198.614 131.5,194.5C 132.403,191.908 131.736,189.574 129.5,187.5C 129.573,185.973 128.906,184.973 127.5,184.5C 127.167,183.167 126.833,183.167 126.5,184.5C 125.326,183.486 124.66,182.153 124.5,180.5C 125.833,180.167 125.833,179.833 124.5,179.5C 124.262,177.596 123.262,176.262 121.5,175.5C 120.994,173.895 120.327,173.561 119.5,174.5C 118.5,174.167 117.833,173.5 117.5,172.5C 118.439,171.673 118.105,171.006 116.5,170.5C 115.738,168.738 114.404,167.738 112.5,167.5C 111.779,165.618 110.779,165.285 109.5,166.5C 107.451,165.359 105.451,165.359 103.5,166.5C 103.167,165.167 102.833,165.167 102.5,166.5C 101.094,166.973 100.427,167.973 100.5,169.5C 100.833,169.5 101.167,169.5 101.5,169.5C 101.573,171.027 100.906,172.027 99.5,172.5C 99.3404,174.153 98.6737,175.486 97.5,176.5C 97.19,175.262 96.69,175.262 96,176.5C 94.6667,178.5 93.3333,180.5 92,182.5C 91.3083,183.437 91.475,184.103 92.5,184.5C 92.573,186.027 91.9063,187.027 90.5,187.5C 90.7373,188.791 90.404,189.791 89.5,190.5C 89.5654,190.062 89.3988,189.728 89,189.5C 87.5187,190.471 86.6854,191.804 86.5,193.5C 85.0937,193.973 84.427,194.973 84.5,196.5C 83.1667,197.167 83.1667,197.833 84.5,198.5C 84.573,200.027 83.9063,201.027 82.5,201.5C 82.2178,202.778 81.5511,203.778 80.5,204.5C 78.0297,207.823 75.6963,211.323 73.5,215C 73.7284,215.399 74.0618,215.565 74.5,215.5C 74.5674,216.959 74.2341,218.292 73.5,219.5C 72.0755,217.969 71.4088,218.302 71.5,220.5C 70.5,220.833 69.8333,221.5 69.5,222.5C 68.5,222.833 67.8333,223.5 67.5,224.5C 64.8728,225.092 62.2062,225.425 59.5,225.5C 58.4324,224.566 57.099,224.232 55.5,224.5C 54.1667,223.5 54.1667,222.5 55.5,221.5C 56.9063,221.027 57.573,220.027 57.5,218.5C 57.1667,218.5 56.8333,218.5 56.5,218.5C 57.1103,216.566 58.1103,214.899 59.5,213.5C 59.8333,214.833 60.1667,214.833 60.5,213.5C 61.3382,213.158 61.6716,212.492 61.5,211.5C 63.9367,210.262 64.9367,208.595 64.5,206.5C 64.427,204.973 65.0937,203.973 66.5,203.5C 67.1846,201.222 68.1846,199.888 69.5,199.5C 71.5497,197.763 73.383,195.763 75,193.5C 75.6917,192.563 75.525,191.897 74.5,191.5C 74.3284,190.508 74.6618,189.842 75.5,189.5C 76.3285,190.332 77.1618,189.999 78,188.5C 79.5,186.333 81,184.167 82.5,182C 82.2716,181.601 81.9382,181.435 81.5,181.5C 82.1103,179.566 83.1103,177.899 84.5,176.5C 85.3274,177.439 85.9941,177.105 86.5,175.5C 87.9063,175.027 88.573,174.027 88.5,172.5C 89.8333,172.167 89.8333,171.833 88.5,171.5C 88.5,170.833 88.5,170.167 88.5,169.5C 88.9382,169.565 89.2716,169.399 89.5,169C 88.5842,168.722 87.9175,168.222 87.5,167.5C 86.209,167.263 85.209,167.596 84.5,168.5C 80.038,169.153 75.7047,170.32 71.5,172C 72.448,172.483 73.448,172.649 74.5,172.5C 70.3768,174.458 66.0434,174.791 61.5,173.5C 61.5,172.167 60.8333,171.5 59.5,171.5C 58.1667,169.5 56.5,167.833 54.5,166.5C 54.573,164.973 53.9063,163.973 52.5,163.5C 52.1667,160.833 51.8333,160.833 51.5,163.5C 50.3775,161.712 50.2109,159.712 51,157.5C 52.2917,158.791 53.4583,158.791 54.5,157.5C 55.791,157.737 56.791,157.404 57.5,156.5C 66.8311,155.418 76.1644,155.251 85.5,156C 77.5272,155.174 77.5272,154.674 85.5,154.5C 87.6264,155.048 89.6264,155.715 91.5,156.5C 85.7924,156.492 85.4591,156.992 90.5,158C 92.9291,158.703 95.2625,158.537 97.5,157.5C 97.8333,158.833 98.1667,158.833 98.5,157.5C 99.5,157.167 100.167,156.5 100.5,155.5C 102.105,154.994 102.439,154.327 101.5,153.5C 101.328,152.508 101.662,151.842 102.5,151.5C 103.758,152.016 104.758,151.35 105.5,149.5C 106.906,149.027 107.573,148.027 107.5,146.5C 108.833,146.167 108.833,145.833 107.5,145.5C 108.11,143.566 109.11,141.899 110.5,140.5C 111.301,142.793 111.968,142.46 112.5,139.5C 113.5,139.167 114.167,138.5 114.5,137.5C 115.167,137.5 115.5,137.167 115.5,136.5C 116.267,135.828 116.934,134.995 117.5,134C 117.272,133.601 116.938,133.435 116.5,133.5C 116.328,132.508 116.662,131.842 117.5,131.5C 118.758,132.016 119.758,131.35 120.5,129.5C 121.906,129.027 122.573,128.027 122.5,126.5C 124.105,125.994 124.439,125.327 123.5,124.5C 123.427,122.973 124.094,121.973 125.5,121.5C 125.833,122.833 126.167,122.833 126.5,121.5C 127.338,121.158 127.672,120.492 127.5,119.5C 129.167,118.5 130.5,117.167 131.5,115.5C 132.906,115.027 133.573,114.027 133.5,112.5C 134.833,112.167 134.833,111.833 133.5,111.5C 133.932,110.29 134.599,109.29 135.5,108.5C 135.833,109.833 136.167,109.833 136.5,108.5C 137.833,108.5 138.5,107.833 138.5,106.5C 140.35,105.758 141.016,104.758 140.5,103.5C 140.738,101.596 141.738,100.262 143.5,99.5C 145.833,99.1667 147.167,97.8333 147.5,95.5C 149.35,94.7582 150.016,93.7582 149.5,92.5C 149.328,91.5084 149.662,90.8417 150.5,90.5C 150.435,90.9382 150.601,91.2716 151,91.5C 152.833,89.6667 154.667,87.8333 156.5,86C 156.272,85.6012 155.938,85.4346 155.5,85.5C 155.427,83.9731 156.094,82.9731 157.5,82.5C 158.758,83.0164 159.758,82.3497 160.5,80.5 Z M 208.5,85.5 C 208.389,87.6477 209.056,87.981 210.5,86.5C 218.671,88.5064 221.338,93.5064 218.5,101.5C 217.167,102.167 217.167,102.833 218.5,103.5C 217.686,107.116 216.352,110.449 214.5,113.5C 214.19,112.262 213.69,112.262 213,113.5C 210.833,117.833 208.667,122.167 206.5,126.5C 206.624,127.107 206.957,127.44 207.5,127.5C 207.405,129.786 206.738,131.786 205.5,133.5C 205.631,132.761 205.464,132.094 205,131.5C 203.546,134.071 202.38,136.738 201.5,139.5C 200.069,140.78 199.402,142.447 199.5,144.5C 198.167,145.167 198.167,145.833 199.5,146.5C 199.59,149.152 198.924,151.485 197.5,153.5C 197.167,150.833 196.833,150.833 196.5,153.5C 195.069,154.78 194.402,156.447 194.5,158.5C 192.733,160.792 191.733,163.458 191.5,166.5C 190.167,167.5 190.167,168.5 191.5,169.5C 191.435,172.428 190.768,175.095 189.5,177.5C 189.768,179.099 189.434,180.432 188.5,181.5C 188.649,180.448 188.483,179.448 188,178.5C 184.098,187.965 183.098,197.631 185,207.5C 185.464,206.906 185.631,206.239 185.5,205.5C 186.268,206.263 186.768,207.263 187,208.5C 188.356,207.62 189.856,207.286 191.5,207.5C 192.779,208.715 193.779,208.382 194.5,206.5C 196.404,206.262 197.738,205.262 198.5,203.5C 197.833,203.5 197.5,203.167 197.5,202.5C 198.864,200.809 200.197,199.142 201.5,197.5C 201.435,197.938 201.601,198.272 202,198.5C 205.584,195.337 207.417,191.671 207.5,187.5C 207.721,184.933 208.388,182.599 209.5,180.5C 209.369,181.239 209.536,181.906 210,182.5C 211.009,180.975 211.509,179.308 211.5,177.5C 213.416,173.837 214.416,169.837 214.5,165.5C 215.468,163.393 215.802,161.059 215.5,158.5C 216.833,156.5 216.833,154.5 215.5,152.5C 215.672,151.508 215.338,150.842 214.5,150.5C 212.448,148.024 212.115,145.358 213.5,142.5C 214.833,141.833 215.833,140.833 216.5,139.5C 219.546,137.708 222.879,136.708 226.5,136.5C 226.263,137.791 226.596,138.791 227.5,139.5C 227.054,142.01 227.72,144.01 229.5,145.5C 230.538,147.628 231.871,148.628 233.5,148.5C 234.222,148.918 234.722,149.584 235,150.5C 235.333,150.167 235.667,149.833 236,149.5C 237.067,150.191 238.234,150.691 239.5,151C 237.068,152.087 237.402,152.587 240.5,152.5C 242.265,153.461 244.265,153.795 246.5,153.5C 246.167,154.167 245.833,154.833 245.5,155.5C 244.778,155.918 244.278,156.584 244,157.5C 243.667,157.167 243.333,156.833 243,156.5C 241.43,157.358 239.763,158.025 238,158.5C 235.547,157.507 233.047,157.34 230.5,158C 229.891,159.948 229.224,161.782 228.5,163.5C 228.66,161.801 228.494,160.134 228,158.5C 227.046,164.149 225.546,169.649 223.5,175C 223.57,175.765 223.903,176.265 224.5,176.5C 224.405,178.786 223.738,180.786 222.5,182.5C 222.167,179.833 221.833,179.833 221.5,182.5C 220.326,183.514 219.66,184.847 219.5,186.5C 217.559,188.316 216.892,190.316 217.5,192.5C 217.008,194.819 216.008,196.819 214.5,198.5C 213.673,197.561 213.006,197.895 212.5,199.5C 211.094,199.973 210.427,200.973 210.5,202.5C 208.895,203.006 208.561,203.673 209.5,204.5C 209.262,206.404 208.262,207.738 206.5,208.5C 204.871,208.372 203.538,209.372 202.5,211.5C 199.993,211.632 199.326,212.632 200.5,214.5C 198.412,215.939 196.079,216.606 193.5,216.5C 193.167,215.167 192.833,215.167 192.5,216.5C 190.418,216.528 188.584,215.861 187,214.5C 185.687,215.287 184.52,214.954 183.5,213.5C 186.167,213.167 186.167,212.833 183.5,212.5C 181.853,210.674 179.853,209.34 177.5,208.5C 177.167,207.167 176.833,207.167 176.5,208.5C 173.224,205.685 171.891,202.019 172.5,197.5C 173.012,189.228 174.345,181.228 176.5,173.5C 176.833,177.5 177.167,177.5 177.5,173.5C 178.924,171.485 179.59,169.152 179.5,166.5C 181.099,163.216 182.433,159.716 183.5,156C 183.43,155.235 183.097,154.735 182.5,154.5C 182.41,151.848 183.076,149.515 184.5,147.5C 184.263,146.209 184.596,145.209 185.5,144.5C 185.369,145.239 185.536,145.906 186,146.5C 187.009,144.975 187.509,143.308 187.5,141.5C 188.931,140.22 189.598,138.553 189.5,136.5C 190.338,136.158 190.672,135.492 190.5,134.5C 191.833,133.5 191.833,132.5 190.5,131.5C 190.928,128.215 191.928,125.215 193.5,122.5C 193.833,125.167 194.167,125.167 194.5,122.5C 195.931,121.22 196.598,119.553 196.5,117.5C 197.864,115.78 198.864,113.78 199.5,111.5C 199.376,110.893 199.043,110.56 198.5,110.5C 198.928,107.215 199.928,104.215 201.5,101.5C 201.369,102.239 201.536,102.906 202,103.5C 202.791,102.255 203.291,100.922 203.5,99.5C 205.293,97.5739 206.293,95.2406 206.5,92.5C 208.138,91.2954 208.471,89.9621 207.5,88.5C 207.263,87.209 207.596,86.209 208.5,85.5 Z M 157.5,102.5 C 157.5,103.833 157.5,105.167 157.5,106.5C 156.833,107.5 156.167,108.5 155.5,109.5C 155.41,106.848 156.076,104.515 157.5,102.5 Z M 190.5,131.5 C 190.5,132.5 190.5,133.5 190.5,134.5C 189.662,134.842 189.328,135.508 189.5,136.5C 189.167,136.5 188.833,136.5 188.5,136.5C 188.402,134.447 189.069,132.78 190.5,131.5 Z M 115.5,134.5 C 115.5,135.167 115.5,135.833 115.5,136.5C 114.833,136.5 114.5,136.833 114.5,137.5C 114.167,137.5 113.833,137.5 113.5,137.5C 113.427,135.973 114.094,134.973 115.5,134.5 Z M 213.5,150.5 C 213.833,150.5 214.167,150.5 214.5,150.5C 214.328,151.492 214.662,152.158 215.5,152.5C 215.5,154.5 215.5,156.5 215.5,158.5C 214.532,160.607 214.198,162.941 214.5,165.5C 214.167,165.5 213.833,165.5 213.5,165.5C 214.098,160.44 214.098,155.44 213.5,150.5 Z M 123.5,172.5 C 123.5,172.167 123.5,171.833 123.5,171.5C 125.027,171.427 126.027,172.094 126.5,173.5C 125.833,173.5 125.167,173.5 124.5,173.5C 124.5,172.833 124.167,172.5 123.5,172.5 Z"/></g>
<g><path style="opacity:0.01" fill="#181818" d="M 175.5,1.5 C 179.671,0.535063 183.671,1.20173 187.5,3.5C 186.833,3.5 186.5,3.83333 186.5,4.5C 186.167,4.5 185.833,4.5 185.5,4.5C 184.833,4.5 184.5,4.16667 184.5,3.5C 184.167,3.5 183.833,3.5 183.5,3.5C 182.5,2.16667 181.5,2.16667 180.5,3.5C 178.901,3.76781 177.568,3.43448 176.5,2.5C 180.172,1.95526 179.838,1.62192 175.5,1.5 Z"/></g>
<g><path style="opacity:0.01" fill="#050505" d="M 187.5,4.5 C 187.5,4.16667 187.5,3.83333 187.5,3.5C 189.099,3.23219 190.432,3.56552 191.5,4.5C 190.833,4.5 190.5,4.83333 190.5,5.5C 190.167,5.5 189.833,5.5 189.5,5.5C 188.833,5.5 188.5,5.16667 188.5,4.5C 188.167,4.5 187.833,4.5 187.5,4.5 Z"/></g>
<g><path style="opacity:0.009" fill="#030403" d="M 191.5,5.5 C 191.5,5.16667 191.5,4.83333 191.5,4.5C 195.5,4.83333 195.5,5.16667 191.5,5.5 Z"/></g>
<g><path style="opacity:0.012" fill="#101010" d="M 201.5,8.5 C 202.251,7.42654 203.251,7.25988 204.5,8C 208.477,9.46852 211.81,11.6352 214.5,14.5C 214.167,14.5 213.833,14.5 213.5,14.5C 212.833,14.5 212.5,14.1667 212.5,13.5C 212.167,13.5 211.833,13.5 211.5,13.5C 210.833,13.5 210.5,13.1667 210.5,12.5C 210.167,12.5 209.833,12.5 209.5,12.5C 208.833,12.5 208.5,12.1667 208.5,11.5C 208.167,11.5 207.833,11.5 207.5,11.5C 207.167,10.1667 206.833,10.1667 206.5,11.5C 205.508,11.6716 204.842,11.3382 204.5,10.5C 203.508,10.6716 202.842,10.3382 202.5,9.5C 203.557,8.79405 203.224,8.46072 201.5,8.5 Z"/></g>
<g><path style="opacity:0.006" fill="#090909" d="M 96.5,9.5 C 96.1583,10.3382 95.4916,10.6716 94.5,10.5C 94.1667,9.16667 93.8333,9.16667 93.5,10.5C 93.1667,10.5 92.8333,10.5 92.5,10.5C 91.8333,10.5 91.5,10.8333 91.5,11.5C 91.1667,11.5 90.8333,11.5 90.5,11.5C 89.8333,11.5 89.5,11.8333 89.5,12.5C 89.1667,12.5 88.8333,12.5 88.5,12.5C 87.8333,12.5 87.5,12.8333 87.5,13.5C 87.1667,13.5 86.8333,13.5 86.5,13.5C 85.8333,13.5 85.5,13.8333 85.5,14.5C 85.1667,14.5 84.8333,14.5 84.5,14.5C 86.5102,11.9725 89.1769,10.1392 92.5,9C 93.9285,8.42094 95.2618,8.58761 96.5,9.5 Z"/></g>
<g><path style="opacity:0.006" fill="#0a0a0a" d="M 80.5,16.5 C 80.5,17.1667 80.1667,17.5 79.5,17.5C 79.1667,16.1667 78.8333,16.1667 78.5,17.5C 78.5,18.1667 78.1667,18.5 77.5,18.5C 77.5,17.8333 77.1667,17.5 76.5,17.5C 77.5383,15.4805 78.8716,15.1472 80.5,16.5 Z"/></g>
<g><path style="opacity:0.007" fill="#0a0a0a" d="M 222.5,17.5 C 221.833,17.5 221.5,17.8333 221.5,18.5C 220.833,18.5 220.5,18.1667 220.5,17.5C 220.167,16.1667 219.833,16.1667 219.5,17.5C 218.833,17.5 218.5,17.1667 218.5,16.5C 220.128,15.1472 221.462,15.4805 222.5,17.5 Z"/></g>
<g><path style="opacity:0.145" fill="#4d4d4d" d="M 74.5,18.5 C 74.8417,17.6618 75.5084,17.3284 76.5,17.5C 77.1667,17.5 77.5,17.8333 77.5,18.5C 77.1583,19.3382 76.4916,19.6716 75.5,19.5C 75.5,18.8333 75.1667,18.5 74.5,18.5 Z"/></g>
<g><path style="opacity:0.016" fill="#424242" d="M 222.5,17.5 C 223.492,17.3284 224.158,17.6618 224.5,18.5C 223.833,18.5 223.5,18.8333 223.5,19.5C 222.508,19.6716 221.842,19.3382 221.5,18.5C 222.167,18.5 222.5,18.1667 222.5,17.5 Z"/></g>
<g><path style="opacity:0.004" fill="#040404" d="M 224.5,19.5 C 224.5,19.1667 224.5,18.8333 224.5,18.5C 226.027,18.427 227.027,19.0937 227.5,20.5C 227.167,20.5 226.833,20.5 226.5,20.5C 226.167,20.5 225.833,20.5 225.5,20.5C 224.833,20.5 224.5,20.1667 224.5,19.5 Z"/></g>
<g><path style="opacity:0.006" fill="#040404" d="M 74.5,18.5 C 74.5,18.8333 74.5,19.1667 74.5,19.5C 73.8333,19.5 73.5,19.8333 73.5,20.5C 72.8333,20.5 72.5,20.8333 72.5,21.5C 72.1667,21.5 71.8333,21.5 71.5,21.5C 71.1667,21.5 70.8333,21.5 70.5,21.5C 71.2623,19.7376 72.5956,18.7376 74.5,18.5 Z"/></g>
<g><path style="opacity:0.009" fill="#040404" d="M 227.5,21.5 C 227.5,21.1667 227.5,20.8333 227.5,20.5C 229.027,20.427 230.027,21.0937 230.5,22.5C 230.167,22.5 229.833,22.5 229.5,22.5C 229.167,22.5 228.833,22.5 228.5,22.5C 227.833,22.5 227.5,22.1667 227.5,21.5 Z"/></g>
<g><path style="opacity:0.016" fill="#1b1b1b" d="M 70.5,21.5 C 70.5,21.8333 70.5,22.1667 70.5,22.5C 70.5,23.1667 70.1667,23.5 69.5,23.5C 67.9689,22.0755 68.3023,21.4088 70.5,21.5 Z"/></g>
<g><path style="opacity:0.008" fill="#000000" d="M 230.5,22.5 C 231.833,23.1667 231.833,23.1667 230.5,22.5 Z"/></g>
<g><path style="opacity:0.006" fill="#121212" d="M 65.5,25.5 C 64.8333,25.5 64.5,25.8333 64.5,26.5C 64.5,27.1667 64.1667,27.5 63.5,27.5C 63.5,26.8333 63.1667,26.5 62.5,26.5C 63.221,24.6182 64.221,24.2848 65.5,25.5 Z"/></g>
<g><path style="opacity:0.006" fill="#111111" d="M 234.5,26.5 C 233.833,26.5 233.5,26.1667 233.5,25.5C 235.346,24.2576 235.679,24.591 234.5,26.5 Z"/></g>
<g><path style="opacity:0.024" fill="#0b0b0b" d="M 62.5,26.5 C 62.5,26.8333 62.5,27.1667 62.5,27.5C 61.8333,27.5 61.5,27.8333 61.5,28.5C 60.8333,28.8333 60.1667,29.1667 59.5,29.5C 59.0618,29.5654 58.7284,29.3988 58.5,29C 59.4709,27.5187 60.8042,26.6854 62.5,26.5 Z"/></g>
<g><path style="opacity:0.016" fill="#0b0b0b" d="M 238.5,28.5 C 237.508,28.6716 236.842,28.3382 236.5,27.5C 237.497,26.2875 238.497,26.4542 239.5,28C 239.272,28.3988 238.938,28.5654 238.5,28.5 Z"/></g>
<g><path style="opacity:0.012" fill="#000000" d="M 240.5,29.5 C 241.833,30.1667 241.833,30.1667 240.5,29.5 Z"/></g>
<g><path style="opacity:0.009" fill="#060606" d="M 54.5,33.5 C 53.8333,33.5 53.5,33.8333 53.5,34.5C 52.8333,34.5 52.5,34.8333 52.5,35.5C 51.7095,36.4013 50.7095,37.0679 49.5,37.5C 49.0618,37.5654 48.7284,37.3988 48.5,37C 49.8333,35.6667 51.1667,34.3333 52.5,33C 53.4368,32.3083 54.1034,32.475 54.5,33.5 Z"/></g>
<g><path style="opacity:0.008" fill="#0c0c0c" d="M 244.5,33.5 C 244.897,32.475 245.563,32.3083 246.5,33C 247.5,34 248.5,35 249.5,36C 249.272,36.3988 248.938,36.5654 248.5,36.5C 247.29,36.0679 246.29,35.4013 245.5,34.5C 244.833,34.5 244.5,34.1667 244.5,33.5 Z"/></g>
<g><path style="opacity:0.004" fill="#020302" d="M 250.5,37.5 C 251.833,38.1667 251.833,38.1667 250.5,37.5 Z"/></g>
<g><path style="opacity:0.009" fill="#030303" d="M 253.5,41.5 C 255.664,40.8817 257.33,41.8817 258.5,44.5C 258.376,45.1067 258.043,45.44 257.5,45.5C 256.833,45.5 256.5,45.1667 256.5,44.5C 255.833,44.5 255.5,44.1667 255.5,43.5C 254.833,43.5 254.5,43.1667 254.5,42.5C 253.833,42.5 253.5,42.1667 253.5,41.5 Z"/></g>
<g><path style="opacity:0.009" fill="#030303" d="M 37.5,49.5 C 37.5,49.8333 37.5,50.1667 37.5,50.5C 36.8333,50.5 36.5,50.8333 36.5,51.5C 35.8333,51.5 35.5,51.8333 35.5,52.5C 34.8333,52.5 34.5,52.8333 34.5,53.5C 33.475,53.1034 33.3083,52.4368 34,51.5C 35,50.5 36,49.5 37,48.5C 37.3988,48.7284 37.5654,49.0618 37.5,49.5 Z"/></g>
<g><path style="opacity:0.005" fill="#0a0a0a" d="M 265.5,54.5 C 264.833,54.5 264.5,54.1667 264.5,53.5C 263.662,53.1583 263.328,52.4916 263.5,51.5C 264.329,50.6676 265.162,51.001 266,52.5C 266.692,53.4368 266.525,54.1034 265.5,54.5 Z"/></g>
<g><path style="opacity:0.01" fill="#020202" d="M 28.5,61.5 C 27.8333,61.5 27.5,61.8333 27.5,62.5C 26.2875,61.5029 26.4542,60.5029 28,59.5C 28.4643,60.0944 28.631,60.7611 28.5,61.5 Z"/></g>
<g><path style="opacity:0.006" fill="#010101" d="M 273.5,63.5 C 273.167,63.5 272.833,63.5 272.5,63.5C 271.833,63.5 271.5,63.1667 271.5,62.5C 272.301,60.2071 272.968,60.5404 273.5,63.5 Z"/></g>
<g><path style="opacity:0.004" fill="#030403" d="M 24.5,63.5 C 25.8333,64.1667 25.8333,64.1667 24.5,63.5 Z"/></g>
<g><path style="opacity:0.008" fill="#000000" d="M 273.5,63.5 C 274.167,63.5 274.5,63.8333 274.5,64.5C 274.167,64.1667 273.833,63.8333 273.5,63.5 Z"/></g>
<g><path style="opacity:0.004" fill="#010201" d="M 274.5,64.5 C 275.833,65.1667 275.833,65.1667 274.5,64.5 Z"/></g>
<g><path style="opacity:0.004" fill="#000000" d="M 24.5,66.5 C 23.8333,65.1667 23.8333,65.1667 24.5,66.5 Z"/></g>
<g><path style="opacity:0.012" fill="#1b1b1b" d="M 23.5,69.5 C 23.5,70.1667 23.1667,70.5 22.5,70.5C 21.2576,68.654 21.591,68.3207 23.5,69.5 Z"/></g>
<g><path style="opacity:0.004" fill="#000000" d="M 283.5,79.5 C 283.167,79.5 282.833,79.5 282.5,79.5C 282.833,76.8333 283.167,76.8333 283.5,79.5 Z"/></g>
<g><path style="opacity:0.008" fill="#070707" d="M 161.5,78.5 C 161.833,78.5 162.167,78.5 162.5,78.5C 163.568,79.4345 164.901,79.7678 166.5,79.5C 166.842,80.3382 167.508,80.6716 168.5,80.5C 168.833,81.8333 169.167,81.8333 169.5,80.5C 170.167,81.1667 170.833,81.8333 171.5,82.5C 171.44,83.0431 171.107,83.3764 170.5,83.5C 167.502,81.3318 164.169,80.3318 160.5,80.5C 160.5,80.1667 160.5,79.8333 160.5,79.5C 161.167,79.5 161.5,79.1667 161.5,78.5 Z"/></g>
<g><path style="opacity:0.004" fill="#000000" d="M 283.5,79.5 C 284.833,80.1667 284.833,80.1667 283.5,79.5 Z"/></g>
<g><path style="opacity:0.004" fill="#000000" d="M 15.5,81.5 C 14.8333,80.1667 14.8333,80.1667 15.5,81.5 Z"/></g>
<g><path style="opacity:0.013" fill="#030303" d="M 286.5,86.5 C 288.539,87.911 289.539,89.911 289.5,92.5C 289.167,92.5 288.833,92.5 288.5,92.5C 288.672,91.5084 288.338,90.8417 287.5,90.5C 287.672,89.5084 287.338,88.8417 286.5,88.5C 286.5,87.8333 286.5,87.1667 286.5,86.5 Z"/></g>
<g><path style="opacity:0.012" fill="#020202" d="M 205.5,92.5 C 205.833,92.5 206.167,92.5 206.5,92.5C 206.293,95.2406 205.293,97.5739 203.5,99.5C 203.5,98.5 203.5,97.5 203.5,96.5C 204.338,96.1583 204.672,95.4916 204.5,94.5C 205.338,94.1583 205.672,93.4916 205.5,92.5 Z"/></g>
<g><path style="opacity:0.01" fill="#020202" d="M 289.5,92.5 C 290.338,92.8417 290.672,93.5084 290.5,94.5C 290.167,94.5 289.833,94.5 289.5,94.5C 289.5,93.8333 289.5,93.1667 289.5,92.5 Z"/></g>
<g><path style="opacity:0.02" fill="#040404" d="M 209.5,84.5 C 209.833,84.5 210.167,84.5 210.5,84.5C 210.842,85.3382 211.508,85.6716 212.5,85.5C 213.209,86.404 214.209,86.7373 215.5,86.5C 215.842,87.3382 216.508,87.6716 217.5,87.5C 217.5,88.1667 217.833,88.5 218.5,88.5C 218.5,89.1667 218.833,89.5 219.5,89.5C 219.328,90.4916 219.662,91.1583 220.5,91.5C 220.5,93.8333 220.5,96.1667 220.5,98.5C 219.596,99.209 219.263,100.209 219.5,101.5C 219.167,101.5 218.833,101.5 218.5,101.5C 221.338,93.5064 218.671,88.5064 210.5,86.5C 209.056,87.981 208.389,87.6477 208.5,85.5C 209.167,85.5 209.5,85.1667 209.5,84.5 Z"/></g>
<g><path style="opacity:0.013" fill="#030303" d="M 176.5,89.5 C 176.833,89.5 177.167,89.5 177.5,89.5C 177.5,91.8333 177.5,94.1667 177.5,96.5C 176.662,96.8417 176.328,97.5084 176.5,98.5C 176.167,98.5 175.833,98.5 175.5,98.5C 176.159,95.5448 176.492,92.5448 176.5,89.5 Z"/></g>
<g><path style="opacity:0.006" fill="#010101" d="M 290.5,94.5 C 291.525,94.8966 291.692,95.5632 291,96.5C 290.536,95.9056 290.369,95.2389 290.5,94.5 Z"/></g>
<g><path style="opacity:0.014" fill="#030303" d="M 146.5,95.5 C 146.833,95.5 147.167,95.5 147.5,95.5C 147.167,97.8333 145.833,99.1667 143.5,99.5C 143.5,99.1667 143.5,98.8333 143.5,98.5C 144.167,98.5 144.5,98.1667 144.5,97.5C 145.167,97.5 145.5,97.1667 145.5,96.5C 146.167,96.5 146.5,96.1667 146.5,95.5 Z"/></g>
<g><path style="opacity:0.004" fill="#000000" d="M 6.5,97.5 C 7.52502,97.8966 7.69169,98.5632 7,99.5C 6.53566,98.9056 6.36899,98.2389 6.5,97.5 Z"/></g>
<g><path style="opacity:0.004" fill="#000000" d="M 291.5,99.5 C 291.369,98.7611 291.536,98.0944 292,97.5C 292.692,98.4368 292.525,99.1034 291.5,99.5 Z"/></g>
<g><path style="opacity:0.012" fill="#131313" d="M 154.5,100.5 C 153.833,100.5 153.5,100.833 153.5,101.5C 152.5,102.5 151.5,103.5 150.5,104.5C 149.833,104.5 149.5,104.833 149.5,105.5C 148.475,105.103 148.308,104.437 149,103.5C 150.167,102.333 151.333,101.167 152.5,100C 153.437,99.3083 154.103,99.475 154.5,100.5 Z"/></g>
<g><path style="opacity:0.977" fill="#f1f1f1" d="M 157.5,102.5 C 156.076,104.515 155.41,106.848 155.5,109.5C 153.565,114.573 152.232,119.906 151.5,125.5C 150.011,130.617 149.011,135.951 148.5,141.5C 147.549,142.919 147.216,144.585 147.5,146.5C 146.566,147.568 146.232,148.901 146.5,150.5C 143.813,150.336 141.146,150.503 138.5,151C 140.833,151.333 143.167,151.667 145.5,152C 142.854,152.497 140.187,152.664 137.5,152.5C 132.787,151.503 128.12,151.837 123.5,153.5C 123.167,153.5 122.833,153.5 122.5,153.5C 120.585,153.216 118.919,153.549 117.5,154.5C 117.167,154.5 116.833,154.5 116.5,154.5C 114.517,154.843 113.183,154.176 112.5,152.5C 113.167,152.5 113.5,152.167 113.5,151.5C 114.89,150.101 115.89,148.434 116.5,146.5C 117.167,146.5 117.5,146.167 117.5,145.5C 118.167,145.5 118.5,145.167 118.5,144.5C 120.522,142.469 122.189,140.135 123.5,137.5C 124.338,137.158 124.672,136.492 124.5,135.5C 125.167,135.5 125.5,135.167 125.5,134.5C 126.167,134.5 126.5,134.167 126.5,133.5C 127.803,131.858 129.136,130.191 130.5,128.5C 131.167,128.5 131.5,128.167 131.5,127.5C 132.921,124.991 134.588,122.657 136.5,120.5C 137.167,120.5 137.5,120.167 137.5,119.5C 138.167,119.5 138.5,119.167 138.5,118.5C 138.5,118.167 138.5,117.833 138.5,117.5C 139.167,117.5 139.5,117.167 139.5,116.5C 141.262,115.738 142.262,114.404 142.5,112.5C 144.5,111.167 146.167,109.5 147.5,107.5C 148.5,107.167 149.167,106.5 149.5,105.5C 150.167,105.5 150.5,105.167 150.5,104.5C 151.5,103.5 152.5,102.5 153.5,101.5C 154.167,101.5 154.5,101.167 154.5,100.5C 156.598,99.0857 157.598,99.7524 157.5,102.5 Z"/></g>
<g><path style="opacity:0.009" fill="#030303" d="M 5.5,107.5 C 5.5,107.833 5.5,108.167 5.5,108.5C 4.59603,109.209 4.26269,110.209 4.5,111.5C 3.59603,112.209 3.26269,113.209 3.5,114.5C 3.5,114.833 3.5,115.167 3.5,115.5C 2.59603,116.209 2.26269,117.209 2.5,118.5C 2.16667,118.5 1.83333,118.5 1.5,118.5C 2.03588,113.69 3.20254,109.023 5,104.5C 5.48278,105.448 5.64945,106.448 5.5,107.5 Z"/></g>
<g><path style="opacity:0.011" fill="#020202" d="M 157.5,106.5 C 157.59,109.152 156.924,111.485 155.5,113.5C 155.5,112.167 155.5,110.833 155.5,109.5C 156.167,108.5 156.833,107.5 157.5,106.5 Z"/></g>
<g><path style="opacity:0.004" fill="#050505" d="M 137.5,106.5 C 137.833,106.5 138.167,106.5 138.5,106.5C 138.5,107.833 137.833,108.5 136.5,108.5C 136.5,108.167 136.5,107.833 136.5,107.5C 137.167,107.5 137.5,107.167 137.5,106.5 Z"/></g>
<g><path style="opacity:0.005" fill="#191919" d="M 132.5,112.5 C 132.833,112.5 133.167,112.5 133.5,112.5C 133.573,114.027 132.906,115.027 131.5,115.5C 131.5,114.833 131.167,114.5 130.5,114.5C 131.167,113.833 131.833,113.167 132.5,112.5 Z"/></g>
<g><path style="opacity:0.012" fill="#030303" d="M 298.5,122.5 C 298.167,122.5 297.833,122.5 297.5,122.5C 297.768,120.901 297.434,119.568 296.5,118.5C 296.768,116.901 296.434,115.568 295.5,114.5C 295.343,113.127 295.51,111.793 296,110.5C 297.47,114.378 298.303,118.378 298.5,122.5 Z"/></g>
<g><path style="opacity:0.01" fill="#020202" d="M 169.5,116.5 C 169.5,117.5 169.5,118.5 169.5,119.5C 168.596,120.209 168.263,121.209 168.5,122.5C 167.833,123.167 167.167,123.833 166.5,124.5C 166.733,121.458 167.733,118.792 169.5,116.5 Z"/></g>
<g><path style="opacity:0.012" fill="#030403" d="M 1.5,118.5 C 1.78448,120.415 1.45115,122.081 0.5,123.5C 0.215521,121.585 0.548855,119.919 1.5,118.5 Z"/></g>
<g><path style="opacity:0.012" fill="#020202" d="M 138.5,116.5 C 138.5,116.833 138.5,117.167 138.5,117.5C 138.5,117.833 138.5,118.167 138.5,118.5C 137.833,118.5 137.5,118.833 137.5,119.5C 136.833,119.5 136.5,119.833 136.5,120.5C 136.167,120.5 135.833,120.5 135.5,120.5C 135.738,118.596 136.738,117.262 138.5,116.5 Z"/></g>
<g><path style="opacity:0.004" fill="#1f1f1f" d="M 125.5,120.5 C 125.842,119.662 126.508,119.328 127.5,119.5C 127.672,120.492 127.338,121.158 126.5,121.5C 126.5,120.833 126.167,120.5 125.5,120.5 Z"/></g>
<g><path style="opacity:0.008" fill="#030303" d="M 195.5,117.5 C 195.833,117.5 196.167,117.5 196.5,117.5C 196.598,119.553 195.931,121.22 194.5,122.5C 194.5,121.5 194.5,120.5 194.5,119.5C 195.338,119.158 195.672,118.492 195.5,117.5 Z"/></g>
<g><path style="opacity:0.008" fill="#020202" d="M 298.5,122.5 C 298.833,122.5 299.167,122.5 299.5,122.5C 299.5,124.167 299.5,125.833 299.5,127.5C 298.549,126.081 298.216,124.415 298.5,122.5 Z"/></g>
<g><path style="opacity:0.008" fill="#020202" d="M -0.5,123.5 C -0.166667,123.5 0.166667,123.5 0.5,123.5C 0.794717,125.735 0.461384,127.735 -0.5,129.5C -0.5,127.5 -0.5,125.5 -0.5,123.5 Z"/></g>
<g><path style="opacity:0.012" fill="#030303" d="M 121.5,126.5 C 121.833,126.5 122.167,126.5 122.5,126.5C 122.573,128.027 121.906,129.027 120.5,129.5C 120.5,128.833 120.5,128.167 120.5,127.5C 121.167,127.5 121.5,127.167 121.5,126.5 Z"/></g>
<g><path style="opacity:0.008" fill="#181818" d="M 130.5,126.5 C 130.5,127.167 130.833,127.5 131.5,127.5C 131.5,128.167 131.167,128.5 130.5,128.5C 130.167,128.5 129.833,128.5 129.5,128.5C 129.328,127.508 129.662,126.842 130.5,126.5 Z"/></g>
<g><path style="opacity:0.006" fill="#010201" d="M 126.5,131.5 C 126.5,132.167 126.5,132.833 126.5,133.5C 125.833,133.5 125.5,133.833 125.5,134.5C 125.167,134.5 124.833,134.5 124.5,134.5C 124.427,132.973 125.094,131.973 126.5,131.5 Z"/></g>
<g><path style="opacity:0.013" fill="#030303" d="M 188.5,136.5 C 188.833,136.5 189.167,136.5 189.5,136.5C 189.598,138.553 188.931,140.22 187.5,141.5C 187.5,140.5 187.5,139.5 187.5,138.5C 188.338,138.158 188.672,137.492 188.5,136.5 Z"/></g>
<g><path style="opacity:0.016" fill="#040404" d="M 223.5,134.5 C 224.167,134.5 224.833,134.5 225.5,134.5C 225.5,135.167 225.833,135.5 226.5,135.5C 226.5,135.833 226.5,136.167 226.5,136.5C 222.879,136.708 219.546,137.708 216.5,139.5C 216.5,139.167 216.5,138.833 216.5,138.5C 217.167,138.5 217.5,138.167 217.5,137.5C 218.167,137.5 218.5,137.167 218.5,136.5C 219.492,136.672 220.158,136.338 220.5,135.5C 221.791,135.737 222.791,135.404 223.5,134.5 Z"/></g>
<g><path style="opacity:0.008" fill="#020202" d="M 201.5,139.5 C 201.5,140.5 201.5,141.5 201.5,142.5C 200.662,142.842 200.328,143.508 200.5,144.5C 200.167,144.5 199.833,144.5 199.5,144.5C 199.402,142.447 200.069,140.78 201.5,139.5 Z"/></g>
<g><path style="opacity:0.004" fill="#050505" d="M 111.5,139.5 C 111.833,139.5 112.167,139.5 112.5,139.5C 111.968,142.46 111.301,142.793 110.5,140.5C 111.167,140.5 111.5,140.167 111.5,139.5 Z"/></g>
<g><path style="opacity:0.014" fill="#030303" d="M 214.5,139.5 C 215.167,139.5 215.833,139.5 216.5,139.5C 215.833,140.833 214.833,141.833 213.5,142.5C 213.5,141.833 213.5,141.167 213.5,140.5C 214.167,140.5 214.5,140.167 214.5,139.5 Z"/></g>
<g><path style="opacity:0.018" fill="#040404" d="M 227.5,139.5 C 227.833,139.5 228.167,139.5 228.5,139.5C 228.232,141.099 228.566,142.432 229.5,143.5C 229.5,144.167 229.5,144.833 229.5,145.5C 227.72,144.01 227.054,142.01 227.5,139.5 Z"/></g>
<g><path style="opacity:0.006" fill="#010201" d="M 118.5,142.5 C 118.5,143.167 118.5,143.833 118.5,144.5C 117.833,144.5 117.5,144.833 117.5,145.5C 117.167,145.5 116.833,145.5 116.5,145.5C 116.427,143.973 117.094,142.973 118.5,142.5 Z"/></g>
<g><path style="opacity:0.011" fill="#030303" d="M 161.5,143.5 C 161.5,144.833 161.5,146.167 161.5,147.5C 160.637,148.463 159.97,148.463 159.5,147.5C 159.994,145.974 160.661,144.641 161.5,143.5 Z"/></g>
<g><path style="opacity:0.007" fill="#030303" d="M 106.5,146.5 C 106.833,146.5 107.167,146.5 107.5,146.5C 107.573,148.027 106.906,149.027 105.5,149.5C 105.5,148.833 105.5,148.167 105.5,147.5C 106.167,147.5 106.5,147.167 106.5,146.5 Z"/></g>
<g><path style="opacity:0.01" fill="#1c1c1c" d="M 161.5,148.5 C 164.385,148.194 167.052,148.527 169.5,149.5C 169.565,149.938 169.399,150.272 169,150.5C 166.393,149.877 163.893,149.21 161.5,148.5 Z"/></g>
<g><path style="opacity:0.017" fill="#060606" d="M 172.5,152.5 C 172.833,152.5 173.167,152.5 173.5,152.5C 173.5,153.167 173.833,153.5 174.5,153.5C 174.5,153.833 174.5,154.167 174.5,154.5C 172.5,154.5 170.5,154.5 168.5,154.5C 169.833,153.833 171.167,153.167 172.5,152.5 Z"/></g>
<g><path style="opacity:0.007" fill="#030303" d="M 196.5,153.5 C 196.5,154.5 196.5,155.5 196.5,156.5C 195.662,156.842 195.328,157.508 195.5,158.5C 195.167,158.5 194.833,158.5 194.5,158.5C 194.402,156.447 195.069,154.78 196.5,153.5 Z"/></g>
<g><path style="opacity:0.025" fill="#1d1d1d" d="M 58.5,154.5 C 59.5676,153.566 60.901,153.232 62.5,153.5C 67.8333,154.833 73.1667,154.833 78.5,153.5C 81.0593,153.198 83.3926,153.532 85.5,154.5C 77.5272,154.674 77.5272,155.174 85.5,156C 76.1644,155.251 66.8311,155.418 57.5,156.5C 57.5,156.167 57.5,155.833 57.5,155.5C 61.8383,155.378 62.1716,155.045 58.5,154.5 Z"/></g>
<g><path style="opacity:0.016" fill="#060606" d="M 122.5,153.5 C 122.833,153.5 123.167,153.5 123.5,153.5C 125.833,153.5 128.167,153.5 130.5,153.5C 124.718,155.207 118.718,156.04 112.5,156C 114.058,155.79 115.391,155.29 116.5,154.5C 116.833,154.5 117.167,154.5 117.5,154.5C 119.415,154.784 121.081,154.451 122.5,153.5 Z"/></g>
<g><path style="opacity:0.01" fill="#040404" d="M 246.5,151.5 C 247.833,151.5 249.167,151.5 250.5,151.5C 250.5,151.833 250.5,152.167 250.5,152.5C 249.833,152.5 249.5,152.833 249.5,153.5C 248.833,153.5 248.5,153.833 248.5,154.5C 247.833,154.5 247.5,154.833 247.5,155.5C 246.833,155.5 246.167,155.5 245.5,155.5C 245.833,154.833 246.167,154.167 246.5,153.5C 247.506,153.062 247.506,152.396 246.5,151.5 Z"/></g>
<g><path style="opacity:0.008" fill="#1d1d1d" d="M 57.5,154.5 C 57.5,154.833 57.5,155.167 57.5,155.5C 56.1667,155.833 56.1667,156.167 57.5,156.5C 56.791,157.404 55.791,157.737 54.5,157.5C 54.5,157.167 54.5,156.833 54.5,156.5C 55.2223,155.449 56.2223,154.782 57.5,154.5 Z"/></g>
<g><path style="opacity:0.009" fill="#070707" d="M 91.5,156.5 C 92.8333,157.833 94.1667,157.833 95.5,156.5C 96.1667,156.5 96.8333,156.5 97.5,156.5C 97.5,156.833 97.5,157.167 97.5,157.5C 95.2625,158.537 92.9291,158.703 90.5,158C 85.4591,156.992 85.7924,156.492 91.5,156.5 Z"/></g>
<g><path style="opacity:0.008" fill="#181818" d="M 100.5,155.5 C 100.167,156.5 99.5,157.167 98.5,157.5C 98.5,156.167 99.1667,155.5 100.5,155.5 Z"/></g>
<g><path style="opacity:0.945" fill="#eeeeee" d="M 144.5,160.5 C 143.539,162.265 143.205,164.265 143.5,166.5C 142.113,172.967 141.113,179.634 140.5,186.5C 140.36,188.03 139.693,189.03 138.5,189.5C 138.672,188.508 138.338,187.842 137.5,187.5C 137.672,186.508 137.338,185.842 136.5,185.5C 136.5,184.833 136.167,184.5 135.5,184.5C 134.559,182.228 133.226,180.228 131.5,178.5C 131.5,177.833 131.167,177.5 130.5,177.5C 129.5,175.833 128.167,174.5 126.5,173.5C 126.027,172.094 125.027,171.427 123.5,171.5C 123.5,170.833 123.167,170.5 122.5,170.5C 122.5,169.833 122.167,169.5 121.5,169.5C 121.167,168.5 120.5,167.833 119.5,167.5C 119.158,166.662 118.492,166.328 117.5,166.5C 117.5,165.833 117.167,165.5 116.5,165.5C 116.5,164.833 116.167,164.5 115.5,164.5C 114.957,164.44 114.624,164.107 114.5,163.5C 116.291,162.83 117.958,162.163 119.5,161.5C 119.833,161.5 120.167,161.5 120.5,161.5C 122.167,161.5 123.833,161.5 125.5,161.5C 127.415,161.784 129.081,161.451 130.5,160.5C 131.167,160.5 131.5,160.167 131.5,159.5C 135.042,159.62 138.542,159.286 142,158.5C 143.376,158.684 144.209,159.351 144.5,160.5 Z"/></g>
<g><path style="opacity:0.01" fill="#020202" d="M 194.5,158.5 C 194.5,159.5 194.5,160.5 194.5,161.5C 193.596,162.209 193.263,163.209 193.5,164.5C 192.662,164.842 192.328,165.508 192.5,166.5C 192.167,166.5 191.833,166.5 191.5,166.5C 191.733,163.458 192.733,160.792 194.5,158.5 Z"/></g>
<g><path style="opacity:0.017" fill="#101010" d="M 131.5,158.5 C 131.5,158.833 131.5,159.167 131.5,159.5C 125.833,159.664 125.5,159.997 130.5,160.5C 129.081,161.451 127.415,161.784 125.5,161.5C 123.833,160.167 122.167,160.167 120.5,161.5C 120.167,161.5 119.833,161.5 119.5,161.5C 117.801,161.66 116.134,161.494 114.5,161C 120.111,159.731 125.778,158.898 131.5,158.5 Z"/></g>
<g><path style="opacity:0.012" fill="#040404" d="M 144.5,166.5 C 144.5,164.5 144.5,162.5 144.5,160.5C 145.363,159.537 146.03,159.537 146.5,160.5C 145.95,162.657 145.283,164.657 144.5,166.5 Z"/></g>
<g><path style="opacity:0.011" fill="#020302" d="M 52.5,163.5 C 53.9063,163.973 54.573,164.973 54.5,166.5C 54.1667,166.5 53.8333,166.5 53.5,166.5C 53.5,165.833 53.1667,165.5 52.5,165.5C 52.5,164.833 52.5,164.167 52.5,163.5 Z"/></g>
<g><path style="opacity:0.007" fill="#0c0c0c" d="M 109.5,166.5 C 110.779,165.285 111.779,165.618 112.5,167.5C 111.833,167.5 111.5,167.833 111.5,168.5C 110.833,167.833 110.167,167.167 109.5,166.5 Z"/></g>
<g><path style="opacity:0.004" fill="#101010" d="M 115.5,164.5 C 116.167,164.5 116.5,164.833 116.5,165.5C 116.5,165.833 116.5,166.167 116.5,166.5C 114.302,166.591 113.969,165.925 115.5,164.5 Z"/></g>
<g><path style="opacity:0.009" fill="#020202" d="M 102.5,166.5 C 102.5,167.167 102.5,167.833 102.5,168.5C 101.833,168.5 101.5,168.833 101.5,169.5C 101.167,169.5 100.833,169.5 100.5,169.5C 100.427,167.973 101.094,166.973 102.5,166.5 Z"/></g>
<g><path style="opacity:0.012" fill="#060606" d="M 112.5,168.5 C 112.5,168.167 112.5,167.833 112.5,167.5C 114.404,167.738 115.738,168.738 116.5,170.5C 115.391,170.443 114.391,170.11 113.5,169.5C 113.5,168.833 113.167,168.5 112.5,168.5 Z"/></g>
<g><path style="opacity:0.067" fill="#313131" d="M 84.5,168.5 C 85.209,167.596 86.209,167.263 87.5,167.5C 87.9175,168.222 88.5842,168.722 89.5,169C 89.2716,169.399 88.9382,169.565 88.5,169.5C 87.8333,169.5 87.1667,169.5 86.5,169.5C 86.1583,168.662 85.4916,168.328 84.5,168.5 Z"/></g>
<g><path style="opacity:0.009" fill="#020202" d="M 155.5,172.5 C 155.5,172.833 155.5,173.167 155.5,173.5C 154.566,174.568 154.232,175.901 154.5,177.5C 154.167,177.5 153.833,177.5 153.5,177.5C 153.547,174.432 154.047,171.432 155,168.5C 155.49,169.793 155.657,171.127 155.5,172.5 Z"/></g>
<g><path style="opacity:0.004" fill="#040404" d="M 120.5,169.5 C 120.833,169.5 121.167,169.5 121.5,169.5C 122.167,169.5 122.5,169.833 122.5,170.5C 122.5,170.833 122.5,171.167 122.5,171.5C 121.5,171.167 120.833,170.5 120.5,169.5 Z"/></g>
<g><path style="opacity:0.004" fill="#040404" d="M 178.5,166.5 C 178.833,166.5 179.167,166.5 179.5,166.5C 179.59,169.152 178.924,171.485 177.5,173.5C 177.5,172.167 177.5,170.833 177.5,169.5C 178.404,168.791 178.737,167.791 178.5,166.5 Z"/></g>
<g><path style="opacity:0.007" fill="#040404" d="M 84.5,168.5 C 84.5,168.833 84.5,169.167 84.5,169.5C 83.209,169.263 82.209,169.596 81.5,170.5C 80.8333,170.5 80.5,170.833 80.5,171.5C 80.1667,171.5 79.8333,171.5 79.5,171.5C 79.1667,170.167 78.8333,170.167 78.5,171.5C 77.5084,171.328 76.8417,171.662 76.5,172.5C 75.8333,172.5 75.1667,172.5 74.5,172.5C 73.448,172.649 72.448,172.483 71.5,172C 75.7047,170.32 80.038,169.153 84.5,168.5 Z"/></g>
<g><path style="opacity:0.008" fill="#020202" d="M 59.5,172.5 C 59.5,172.167 59.5,171.833 59.5,171.5C 60.8333,171.5 61.5,172.167 61.5,173.5C 61.1667,173.5 60.8333,173.5 60.5,173.5C 60.5,172.833 60.1667,172.5 59.5,172.5 Z"/></g>
<g><path style="opacity:0.009" fill="#020202" d="M 299.5,171.5 C 299.5,173.167 299.5,174.833 299.5,176.5C 299.167,176.5 298.833,176.5 298.5,176.5C 298.216,174.585 298.549,172.919 299.5,171.5 Z"/></g>
<g><path style="opacity:0.004" fill="#050505" d="M 87.5,172.5 C 87.8333,172.5 88.1667,172.5 88.5,172.5C 88.573,174.027 87.9063,175.027 86.5,175.5C 86.5,174.833 86.5,174.167 86.5,173.5C 87.1667,173.5 87.5,173.167 87.5,172.5 Z"/></g>
<g><path style="opacity:0.014" fill="#040404" d="M 213.5,165.5 C 213.833,165.5 214.167,165.5 214.5,165.5C 214.416,169.837 213.416,173.837 211.5,177.5C 211.5,176.167 211.5,174.833 211.5,173.5C 212.434,172.432 212.768,171.099 212.5,169.5C 213.434,168.432 213.768,167.099 213.5,165.5 Z"/></g>
<g><path style="opacity:0.006" fill="#030303" d="M 121.5,175.5 C 123.262,176.262 124.262,177.596 124.5,179.5C 124.167,179.5 123.833,179.5 123.5,179.5C 123.5,178.833 123.167,178.5 122.5,178.5C 122.5,177.833 122.167,177.5 121.5,177.5C 121.5,176.833 121.5,176.167 121.5,175.5 Z"/></g>
<g><path style="opacity:0.012" fill="#020302" d="M 297.5,176.5 C 297.833,176.5 298.167,176.5 298.5,176.5C 298.784,178.415 298.451,180.081 297.5,181.5C 297.5,179.833 297.5,178.167 297.5,176.5 Z"/></g>
<g><path style="opacity:0.004" fill="#202020" d="M 129.5,177.5 C 129.833,177.5 130.167,177.5 130.5,177.5C 131.167,177.5 131.5,177.833 131.5,178.5C 130.833,178.5 130.5,178.833 130.5,179.5C 129.662,179.158 129.328,178.492 129.5,177.5 Z"/></g>
<g><path style="opacity:0.018" fill="#040404" d="M 296.5,181.5 C 296.833,181.5 297.167,181.5 297.5,181.5C 297.768,183.099 297.434,184.432 296.5,185.5C 296.5,184.167 296.5,182.833 296.5,181.5 Z"/></g>
<g><path style="opacity:0.008" fill="#020202" d="M 221.5,182.5 C 221.5,183.5 221.5,184.5 221.5,185.5C 220.833,185.5 220.5,185.833 220.5,186.5C 220.167,186.5 219.833,186.5 219.5,186.5C 219.66,184.847 220.326,183.514 221.5,182.5 Z"/></g>
<g><path style="opacity:0.012" fill="#050505" d="M 153.5,177.5 C 153.5,179.167 153.5,180.833 153.5,182.5C 152.549,183.919 152.216,185.585 152.5,187.5C 152.167,187.5 151.833,187.5 151.5,187.5C 151.322,183.878 151.989,180.544 153.5,177.5 Z"/></g>
<g><path style="opacity:0.012" fill="#010201" d="M 127.5,184.5 C 128.906,184.973 129.573,185.973 129.5,187.5C 129.167,187.5 128.833,187.5 128.5,187.5C 128.5,186.833 128.167,186.5 127.5,186.5C 127.5,185.833 127.5,185.167 127.5,184.5 Z"/></g>
<g><path style="opacity:0.012" fill="#030303" d="M 134.5,184.5 C 134.833,184.5 135.167,184.5 135.5,184.5C 136.167,184.5 136.5,184.833 136.5,185.5C 136.5,186.167 136.5,186.833 136.5,187.5C 135.094,187.027 134.427,186.027 134.5,184.5 Z"/></g>
<g><path style="opacity:0.011" fill="#030303" d="M 3.5,184.5 C 3.26269,185.791 3.59603,186.791 4.5,187.5C 4.5,187.833 4.5,188.167 4.5,188.5C 4.5,189.5 4.5,190.5 4.5,191.5C 2.68827,189.287 2.35493,186.953 3.5,184.5 Z"/></g>
<g><path style="opacity:0.009" fill="#020202" d="M 151.5,187.5 C 151.5,189.5 151.5,191.5 151.5,193.5C 150.539,195.265 150.205,197.265 150.5,199.5C 150.167,199.5 149.833,199.5 149.5,199.5C 149.344,195.236 150.011,191.236 151.5,187.5 Z"/></g>
<g><path style="opacity:0.004" fill="#040404" d="M 295.5,185.5 C 295.833,185.5 296.167,185.5 296.5,185.5C 296.382,188.688 295.549,191.688 294,194.5C 293.536,193.906 293.369,193.239 293.5,192.5C 293.5,192.167 293.5,191.833 293.5,191.5C 294.404,190.791 294.737,189.791 294.5,188.5C 295.404,187.791 295.737,186.791 295.5,185.5 Z"/></g>
<g><path style="opacity:0.008" fill="#030403" d="M 4.5,191.5 C 4.83333,191.5 5.16667,191.5 5.5,191.5C 5.16667,195.5 4.83333,195.5 4.5,191.5 Z"/></g>
<g><path style="opacity:0.013" fill="#010101" d="M 86.5,193.5 C 86.5,194.167 86.5,194.833 86.5,195.5C 85.8333,195.5 85.5,195.833 85.5,196.5C 85.1667,196.5 84.8333,196.5 84.5,196.5C 84.427,194.973 85.0937,193.973 86.5,193.5 Z"/></g>
<g><path style="opacity:0.004" fill="#000000" d="M 6.5,199.5 C 7.52502,199.897 7.69169,200.563 7,201.5C 6.53566,200.906 6.36899,200.239 6.5,199.5 Z"/></g>
<g><path style="opacity:0.004" fill="#000100" d="M 291.5,200.5 C 292.833,201.167 292.833,201.167 291.5,200.5 Z"/></g>
<g><path style="opacity:0.024" fill="#040404" d="M 212.5,199.5 C 212.5,200.167 212.5,200.833 212.5,201.5C 211.833,201.5 211.5,201.833 211.5,202.5C 211.167,202.5 210.833,202.5 210.5,202.5C 210.427,200.973 211.094,199.973 212.5,199.5 Z"/></g>
<g><path style="opacity:0.006" fill="#010101" d="M 290.5,202.5 C 291.833,203.167 291.833,203.833 290.5,204.5C 290.5,203.833 290.5,203.167 290.5,202.5 Z"/></g>
<g><path style="opacity:0.008" fill="#0c0c0c" d="M 197.5,202.5 C 197.5,203.167 197.833,203.5 198.5,203.5C 197.738,205.262 196.404,206.262 194.5,206.5C 194.5,206.167 194.5,205.833 194.5,205.5C 195.272,204.306 196.272,203.306 197.5,202.5 Z"/></g>
<g><path style="opacity:0.009" fill="#141414" d="M 289.5,204.5 C 289.833,204.5 290.167,204.5 290.5,204.5C 289.908,207.691 288.741,210.691 287,213.5C 286.31,214.738 285.81,214.738 285.5,213.5C 285.5,213.167 285.5,212.833 285.5,212.5C 286.167,212.5 286.5,212.167 286.5,211.5C 286.5,211.167 286.5,210.833 286.5,210.5C 287.833,210.167 287.833,209.833 286.5,209.5C 286.328,208.508 286.662,207.842 287.5,207.5C 288.206,208.557 288.539,208.224 288.5,206.5C 289.338,206.158 289.672,205.492 289.5,204.5 Z"/></g>
<g><path style="opacity:0.008" fill="#0e0e0e" d="M 135.5,206.5 C 137.23,207.026 138.564,208.026 139.5,209.5C 138.833,209.5 138.5,209.833 138.5,210.5C 137.778,209.449 136.778,208.782 135.5,208.5C 135.5,207.833 135.5,207.167 135.5,206.5 Z"/></g>
<g><path style="opacity:0.006" fill="#0d0d0d" d="M 193.5,205.5 C 193.5,206.167 193.833,206.5 194.5,206.5C 193.779,208.382 192.779,208.715 191.5,207.5C 192.167,206.833 192.833,206.167 193.5,205.5 Z"/></g>
<g><path style="opacity:0.012" fill="#040404" d="M 11.5,208.5 C 11.5,209.167 11.5,209.833 11.5,210.5C 10.1667,209.833 10.1667,209.167 11.5,208.5 Z"/></g>
<g><path style="opacity:0.01" fill="#050505" d="M 139.5,210.5 C 139.5,210.167 139.5,209.833 139.5,209.5C 142.568,210.022 145.568,210.855 148.5,212C 147.552,212.483 146.552,212.649 145.5,212.5C 145.167,212.5 144.833,212.5 144.5,212.5C 143.791,211.596 142.791,211.263 141.5,211.5C 141.158,210.662 140.492,210.328 139.5,210.5 Z"/></g>
<g><path style="opacity:0.012" fill="#070707" d="M 177.5,209.5 C 177.5,209.167 177.5,208.833 177.5,208.5C 179.853,209.34 181.853,210.674 183.5,212.5C 182.833,212.5 182.167,212.5 181.5,212.5C 180.074,211.659 178.74,210.659 177.5,209.5 Z"/></g>
<g><path style="opacity:0.008" fill="#040404" d="M 11.5,210.5 C 11.8333,210.5 12.1667,210.5 12.5,210.5C 12.1667,213.167 11.8333,213.167 11.5,210.5 Z"/></g>
<g><path style="opacity:0.012" fill="#1a1a1a" d="M 59.5,212.5 C 59.8417,211.662 60.5084,211.328 61.5,211.5C 61.6716,212.492 61.3382,213.158 60.5,213.5C 60.5,212.833 60.1667,212.5 59.5,212.5 Z"/></g>
<g><path style="opacity:0.012" fill="#090909" d="M 202.5,211.5 C 202.5,211.833 202.5,212.167 202.5,212.5C 201.833,213.167 201.167,213.833 200.5,214.5C 199.326,212.632 199.993,211.632 202.5,211.5 Z"/></g>
<g><path style="opacity:0.008" fill="#000100" d="M 14.5,214.5 C 13.8333,215.167 13.8333,215.167 14.5,214.5 Z"/></g>
<g><path style="opacity:0.004" fill="#020302" d="M 284.5,215.5 C 285.833,216.167 285.833,216.167 284.5,215.5 Z"/></g>
<g><path style="opacity:0.004" fill="#000100" d="M 14.5,218.5 C 15.8333,219.167 15.8333,219.167 14.5,218.5 Z"/></g>
<g><path style="opacity:0.009" fill="#000100" d="M 56.5,218.5 C 56.8333,218.5 57.1667,218.5 57.5,218.5C 57.573,220.027 56.9063,221.027 55.5,221.5C 55.5,220.833 55.5,220.167 55.5,219.5C 56.1667,219.5 56.5,219.167 56.5,218.5 Z"/></g>
<g><path style="opacity:0.004" fill="#000000" d="M 283.5,218.5 C 284.833,219.167 284.833,219.167 283.5,218.5 Z"/></g>
<g><path style="opacity:0.012" fill="#1b1b1b" d="M 73.5,219.5 C 73.1583,220.338 72.4916,220.672 71.5,220.5C 71.4088,218.302 72.0755,217.969 73.5,219.5 Z"/></g>
<g><path style="opacity:0.008" fill="#000000" d="M 282.5,220.5 C 283.833,221.167 283.833,221.167 282.5,220.5 Z"/></g>
<g><path style="opacity:0.009" fill="#020202" d="M 17.5,221.5 C 18.1667,221.5 18.5,221.833 18.5,222.5C 18.5,223.167 18.5,223.833 18.5,224.5C 16.6182,223.779 16.2848,222.779 17.5,221.5 Z"/></g>
<g><path style="opacity:0.008" fill="#000000" d="M 281.5,221.5 C 281.833,221.5 282.167,221.5 282.5,221.5C 282.672,222.492 282.338,223.158 281.5,223.5C 281.5,222.833 281.5,222.167 281.5,221.5 Z"/></g>
<g><path style="opacity:0.004" fill="#262626" d="M 69.5,222.5 C 69.5,223.167 69.8333,223.5 70.5,223.5C 70.1667,224.5 69.5,225.167 68.5,225.5C 68.5,224.833 68.1667,224.5 67.5,224.5C 67.8333,223.5 68.5,222.833 69.5,222.5 Z"/></g>
<g><path style="opacity:0.01" fill="#030303" d="M 280.5,223.5 C 280.833,223.5 281.167,223.5 281.5,223.5C 281.573,225.027 280.906,226.027 279.5,226.5C 279.5,225.833 279.5,225.167 279.5,224.5C 280.167,224.5 280.5,224.167 280.5,223.5 Z"/></g>
<g><path style="opacity:0.009" fill="#181818" d="M 18.5,224.5 C 18.8333,224.5 19.1667,224.5 19.5,224.5C 20.1667,224.5 20.5,224.833 20.5,225.5C 21.1667,225.5 21.5,225.833 21.5,226.5C 19.6322,227.674 18.6322,227.007 18.5,224.5 Z"/></g>
<g><path style="opacity:0.007" fill="#141414" d="M 55.5,224.5 C 57.099,224.232 58.4324,224.566 59.5,225.5C 58.5084,225.328 57.8417,225.662 57.5,226.5C 56.1667,226.5 55.5,225.833 55.5,224.5 Z"/></g>
<g><path style="opacity:0.01" fill="#020202" d="M 67.5,224.5 C 67.5,224.833 67.5,225.167 67.5,225.5C 66.5084,225.328 65.8417,225.662 65.5,226.5C 63.5,226.5 61.5,226.5 59.5,226.5C 59.5,226.167 59.5,225.833 59.5,225.5C 62.2062,225.425 64.8728,225.092 67.5,224.5 Z"/></g>
<g><path style="opacity:0.01" fill="#161616" d="M 278.5,226.5 C 278.833,226.5 279.167,226.5 279.5,226.5C 279.573,228.027 278.906,229.027 277.5,229.5C 277.5,228.833 277.167,228.5 276.5,228.5C 276.5,227.833 276.833,227.5 277.5,227.5C 278.167,227.5 278.5,227.167 278.5,226.5 Z"/></g>
<g><path style="opacity:0.012" fill="#000100" d="M 276.5,229.5 C 276.833,229.5 277.167,229.5 277.5,229.5C 277.315,230.17 276.981,230.17 276.5,229.5 Z"/></g>
<g><path style="opacity:0.004" fill="#000000" d="M 23.5,230.5 C 22.8333,231.167 22.8333,231.167 23.5,230.5 Z"/></g>
<g><path style="opacity:0.004" fill="#000000" d="M 274.5,233.5 C 275.833,234.167 275.833,234.167 274.5,233.5 Z"/></g>
<g><path style="opacity:0.005" fill="#020202" d="M 273.5,234.5 C 273.833,234.5 274.167,234.5 274.5,234.5C 274.573,236.027 273.906,237.027 272.5,237.5C 272.5,236.833 272.5,236.167 272.5,235.5C 273.167,235.5 273.5,235.167 273.5,234.5 Z"/></g>
<g><path style="opacity:0.008" fill="#060606" d="M 27.5,236.5 C 27.631,237.239 27.4643,237.906 27,238.5C 26.3083,237.563 26.475,236.897 27.5,236.5 Z"/></g>
<g><path style="opacity:0.016" fill="#000000" d="M 271.5,237.5 C 271.833,237.5 272.167,237.5 272.5,237.5C 272.315,238.17 271.981,238.17 271.5,237.5 Z"/></g>
<g><path style="opacity:0.024" fill="#000000" d="M 270.5,238.5 C 270.833,238.5 271.167,238.5 271.5,238.5C 271.315,239.17 270.981,239.17 270.5,238.5 Z"/></g>
<g><path style="opacity:0.008" fill="#030403" d="M 30.5,240.5 C 29.8333,241.167 29.8333,241.167 30.5,240.5 Z"/></g>
<g><path style="opacity:0.004" fill="#040404" d="M 269.5,239.5 C 269.833,239.5 270.167,239.5 270.5,239.5C 270.289,241.424 269.623,241.757 268.5,240.5C 269.167,240.5 269.5,240.167 269.5,239.5 Z"/></g>
<g><path style="opacity:0.005" fill="#020202" d="M 33.5,244.5 C 34.1667,244.5 34.5,244.833 34.5,245.5C 35.1667,245.5 35.5,245.833 35.5,246.5C 35.8333,247.167 36.1667,247.833 36.5,248.5C 36.5654,248.938 36.3988,249.272 36,249.5C 35,248.5 34,247.5 33,246.5C 32.3083,245.563 32.475,244.897 33.5,244.5 Z"/></g>
<g><path style="opacity:0.004" fill="#000000" d="M 266.5,244.5 C 267.833,245.167 267.833,245.167 266.5,244.5 Z"/></g>
<g><path style="opacity:0.008" fill="#000000" d="M 265.5,245.5 C 265.833,245.5 266.167,245.5 266.5,245.5C 266.315,246.17 265.981,246.17 265.5,245.5 Z"/></g>
<g><path style="opacity:0.012" fill="#040504" d="M 264.5,246.5 C 264.833,246.5 265.167,246.5 265.5,246.5C 265.315,247.17 264.981,247.17 264.5,246.5 Z"/></g>
<g><path style="opacity:0.012" fill="#030403" d="M 263.5,247.5 C 263.833,247.5 264.167,247.5 264.5,247.5C 264.315,248.17 263.981,248.17 263.5,247.5 Z"/></g>
<g><path style="opacity:0.012" fill="#060706" d="M 262.5,248.5 C 262.833,248.5 263.167,248.5 263.5,248.5C 263.315,249.17 262.981,249.17 262.5,248.5 Z"/></g>
<g><path style="opacity:0.012" fill="#040504" d="M 261.5,249.5 C 261.833,249.5 262.167,249.5 262.5,249.5C 262.315,250.17 261.981,250.17 261.5,249.5 Z"/></g>
<g><path style="opacity:0.008" fill="#030403" d="M 260.5,250.5 C 260.833,250.5 261.167,250.5 261.5,250.5C 261.315,251.17 260.981,251.17 260.5,250.5 Z"/></g>
<g><path style="opacity:0.008" fill="#030403" d="M 259.5,251.5 C 259.833,251.5 260.167,251.5 260.5,251.5C 260.315,252.17 259.981,252.17 259.5,251.5 Z"/></g>
<g><path style="opacity:0.004" fill="#000000" d="M 258.5,252.5 C 258.833,252.5 259.167,252.5 259.5,252.5C 259.315,253.17 258.981,253.17 258.5,252.5 Z"/></g>
<g><path style="opacity:0.009" fill="#030303" d="M 41.5,253.5 C 42.1667,253.5 42.5,253.833 42.5,254.5C 43.1667,254.5 43.5,254.833 43.5,255.5C 44.1667,255.5 44.5,255.833 44.5,256.5C 45.1667,256.5 45.5,256.833 45.5,257.5C 45.5,257.833 45.5,258.167 45.5,258.5C 42.3737,257.762 41.0403,256.095 41.5,253.5 Z"/></g>
<g><path style="opacity:0.009" fill="#020202" d="M 257.5,253.5 C 257.833,253.5 258.167,253.5 258.5,253.5C 257.833,256.167 256.167,257.833 253.5,258.5C 253.5,258.167 253.5,257.833 253.5,257.5C 254.167,257.5 254.5,257.167 254.5,256.5C 255.167,256.5 255.5,256.167 255.5,255.5C 256.167,255.5 256.5,255.167 256.5,254.5C 257.167,254.5 257.5,254.167 257.5,253.5 Z"/></g>
<g><path style="opacity:0.004" fill="#040504" d="M 45.5,258.5 C 45.8333,258.5 46.1667,258.5 46.5,258.5C 46.3147,259.17 45.9813,259.17 45.5,258.5 Z"/></g>
<g><path style="opacity:0.008" fill="#040504" d="M 252.5,258.5 C 252.833,258.5 253.167,258.5 253.5,258.5C 253.315,259.17 252.981,259.17 252.5,258.5 Z"/></g>
<g><path style="opacity:0.004" fill="#010201" d="M 251.5,259.5 C 251.833,259.5 252.167,259.5 252.5,259.5C 252.315,260.17 251.981,260.17 251.5,259.5 Z"/></g>
<g><path style="opacity:0.008" fill="#020302" d="M 250.5,260.5 C 250.833,260.5 251.167,260.5 251.5,260.5C 251.315,261.17 250.981,261.17 250.5,260.5 Z"/></g>
<g><path style="opacity:0.016" fill="#030403" d="M 249.5,261.5 C 249.833,261.5 250.167,261.5 250.5,261.5C 250.315,262.17 249.981,262.17 249.5,261.5 Z"/></g>
<g><path style="opacity:0.016" fill="#030403" d="M 248.5,262.5 C 248.833,262.5 249.167,262.5 249.5,262.5C 249.315,263.17 248.981,263.17 248.5,262.5 Z"/></g>
<g><path style="opacity:0.009" fill="#040404" d="M 247.5,263.5 C 247.833,263.5 248.167,263.5 248.5,263.5C 247.625,265.806 246.292,266.473 244.5,265.5C 245.5,264.833 246.5,264.167 247.5,263.5 Z"/></g>
<g><path style="opacity:0.008" fill="#0f0f0f" d="M 50.5,262.5 C 51.7095,262.932 52.7095,263.599 53.5,264.5C 54.1667,264.5 54.5,264.833 54.5,265.5C 54.1034,266.525 53.4368,266.692 52.5,266C 51.5,265 50.5,264 49.5,263C 49.7284,262.601 50.0618,262.435 50.5,262.5 Z"/></g>
<g><path style="opacity:0.004" fill="#060606" d="M 241.5,268.5 C 241.938,268.435 242.272,268.601 242.5,269C 241.529,270.481 240.196,271.315 238.5,271.5C 238.5,271.167 238.5,270.833 238.5,270.5C 239.167,270.5 239.5,270.167 239.5,269.5C 239.842,268.662 240.508,268.328 241.5,268.5 Z"/></g>
<g><path style="opacity:0.008" fill="#0b0b0b" d="M 60.5,270.5 C 61.4916,270.328 62.1583,270.662 62.5,271.5C 63.1667,271.5 63.5,271.833 63.5,272.5C 63.5,272.833 63.5,273.167 63.5,273.5C 61.8042,273.315 60.4709,272.481 59.5,271C 59.7284,270.601 60.0618,270.435 60.5,270.5 Z"/></g>
<g><path style="opacity:0.009" fill="#171717" d="M 237.5,270.5 C 237.5,271.167 237.833,271.5 238.5,271.5C 238.027,272.906 237.027,273.573 235.5,273.5C 235.5,273.167 235.5,272.833 235.5,272.5C 236.167,272.5 236.5,272.167 236.5,271.5C 236.5,270.833 236.833,270.5 237.5,270.5 Z"/></g>
<g><path style="opacity:0.008" fill="#111111" d="M 64.5,272.5 C 65.1667,272.5 65.5,272.833 65.5,273.5C 65.5,273.833 65.5,274.167 65.5,274.5C 64.5084,274.672 63.8417,274.338 63.5,273.5C 64.1667,273.5 64.5,273.167 64.5,272.5 Z"/></g>
<g><path style="opacity:0.008" fill="#000000" d="M 234.5,273.5 C 234.833,273.5 235.167,273.5 235.5,273.5C 235.315,274.17 234.981,274.17 234.5,273.5 Z"/></g>
<g><path style="opacity:0.004" fill="#010201" d="M 65.5,274.5 C 65.8333,274.5 66.1667,274.5 66.5,274.5C 66.3147,275.17 65.9813,275.17 65.5,274.5 Z"/></g>
<g><path style="opacity:0.009" fill="#040404" d="M 68.5,276.5 C 68.8333,276.5 69.1667,276.5 69.5,276.5C 69.8333,276.5 70.1667,276.5 70.5,276.5C 71.1667,276.5 71.5,276.833 71.5,277.5C 71.5,277.833 71.5,278.167 71.5,278.5C 69.9731,278.573 68.9731,277.906 68.5,276.5 Z"/></g>
<g><path style="opacity:0.012" fill="#070807" d="M 229.5,276.5 C 229.833,276.5 230.167,276.5 230.5,276.5C 230.315,277.17 229.981,277.17 229.5,276.5 Z"/></g>
<g><path style="opacity:0.011" fill="#121212" d="M 228.5,276.5 C 228.5,277.167 228.833,277.5 229.5,277.5C 228.341,279.25 226.674,280.25 224.5,280.5C 224.5,280.167 224.5,279.833 224.5,279.5C 225.167,279.5 225.5,279.167 225.5,278.5C 225.833,278.5 226.167,278.5 226.5,278.5C 227.167,278.5 227.5,278.167 227.5,277.5C 227.5,276.833 227.833,276.5 228.5,276.5 Z"/></g>
<g><path style="opacity:0.004" fill="#030303" d="M 71.5,278.5 C 71.8333,278.5 72.1667,278.5 72.5,278.5C 72.8333,278.5 73.1667,278.5 73.5,278.5C 74.1667,278.5 74.5,278.833 74.5,279.5C 74.5,279.833 74.5,280.167 74.5,280.5C 72.9731,280.573 71.9731,279.906 71.5,278.5 Z"/></g>
<g><path style="opacity:0.006" fill="#212121" d="M 75.5,279.5 C 76.4916,279.328 77.1583,279.662 77.5,280.5C 76.1667,280.833 76.1667,281.167 77.5,281.5C 77.5,281.833 77.5,282.167 77.5,282.5C 75.9731,282.573 74.9731,281.906 74.5,280.5C 75.1667,280.5 75.5,280.167 75.5,279.5 Z"/></g>
<g><path style="opacity:0.012" fill="#000100" d="M 223.5,280.5 C 223.833,280.5 224.167,280.5 224.5,280.5C 224.315,281.17 223.981,281.17 223.5,280.5 Z"/></g>
<g><path style="opacity:0.008" fill="#010201" d="M 221.5,282.5 C 221.5,282.167 221.5,281.833 221.5,281.5C 222.167,281.5 222.833,281.5 223.5,281.5C 223.158,282.338 222.492,282.672 221.5,282.5 Z"/></g>
<g><path style="opacity:0.008" fill="#020202" d="M 77.5,282.5 C 78.1667,282.5 78.8333,282.5 79.5,282.5C 78.8333,283.833 78.1667,283.833 77.5,282.5 Z"/></g>
<g><path style="opacity:0.008" fill="#030303" d="M 220.5,281.5 C 220.5,282.167 220.833,282.5 221.5,282.5C 220.833,283.833 220.167,283.833 219.5,282.5C 219.5,281.833 219.833,281.5 220.5,281.5 Z"/></g>
<g><path style="opacity:0.008" fill="#121212" d="M 84.5,285.5 C 84.8333,285.5 85.1667,285.5 85.5,285.5C 85.8333,285.5 86.1667,285.5 86.5,285.5C 87.1667,285.5 87.5,285.833 87.5,286.5C 87.8333,286.5 88.1667,286.5 88.5,286.5C 88.8417,287.338 89.5084,287.672 90.5,287.5C 90.8333,288.833 91.1667,288.833 91.5,287.5C 92.791,287.263 93.791,287.596 94.5,288.5C 90.4902,289.832 87.1568,288.832 84.5,285.5 Z"/></g>
<g><path style="opacity:0.016" fill="#171717" d="M 212.5,285.5 C 212.833,285.5 213.167,285.5 213.5,285.5C 213.833,285.5 214.167,285.5 214.5,285.5C 212.421,287.873 209.754,289.206 206.5,289.5C 206.5,288.833 206.167,288.5 205.5,288.5C 205.842,287.662 206.508,287.328 207.5,287.5C 207.833,288.833 208.167,288.833 208.5,287.5C 208.833,287.5 209.167,287.5 209.5,287.5C 210.167,287.5 210.5,287.167 210.5,286.5C 210.833,286.5 211.167,286.5 211.5,286.5C 212.167,286.5 212.5,286.167 212.5,285.5 Z"/></g>
<g><path style="opacity:0.01" fill="#010201" d="M 204.5,290.5 C 204.5,290.167 204.5,289.833 204.5,289.5C 205.167,289.5 205.833,289.5 206.5,289.5C 206.158,290.338 205.492,290.672 204.5,290.5 Z"/></g>
<g><path style="opacity:0.007" fill="#0e0e0e" d="M 96.5,289.5 C 97.4916,289.328 98.1583,289.662 98.5,290.5C 97.2618,291.412 95.9285,291.579 94.5,291C 95.4158,290.722 96.0825,290.222 96.5,289.5 Z"/></g>
<g><path style="opacity:0.01" fill="#020302" d="M 202.5,290.5 C 203.167,290.5 203.833,290.5 204.5,290.5C 203.833,291.833 203.167,291.833 202.5,290.5 Z"/></g>
<g><path style="opacity:0.01" fill="#030403" d="M 192.5,294.5 C 192.5,294.167 192.5,293.833 192.5,293.5C 195.167,293.833 195.167,294.167 192.5,294.5 Z"/></g>
<g><path style="opacity:0.013" fill="#0a0a0a" d="M 107.5,293.5 C 108.167,294.833 108.833,294.833 109.5,293.5C 110.167,293.5 110.5,293.833 110.5,294.5C 110.5,294.833 110.5,295.167 110.5,295.5C 108.345,295.628 106.345,295.128 104.5,294C 105.448,293.517 106.448,293.351 107.5,293.5 Z"/></g>
<g><path style="opacity:0.008" fill="#161616" d="M 110.5,295.5 C 111.5,295.5 112.5,295.5 113.5,295.5C 113.833,295.5 114.167,295.5 114.5,295.5C 115.5,296.833 116.5,296.833 117.5,295.5C 119.099,295.232 120.432,295.566 121.5,296.5C 117.828,297.045 118.162,297.378 122.5,297.5C 124.167,298.167 125.833,298.833 127.5,299.5C 125.5,299.5 123.5,299.5 121.5,299.5C 117.783,298.32 114.116,296.987 110.5,295.5 Z"/></g>
<g><path style="opacity:0.014" fill="#060606" d="M 186.5,294.5 C 186.833,294.5 187.167,294.5 187.5,294.5C 188.167,294.5 188.5,294.833 188.5,295.5C 186.485,296.924 184.152,297.59 181.5,297.5C 181.5,297.167 181.5,296.833 181.5,296.5C 182.791,296.737 183.791,296.404 184.5,295.5C 184.833,295.5 185.167,295.5 185.5,295.5C 186.167,295.5 186.5,295.167 186.5,294.5 Z"/></g>
<g><path style="opacity:0.008" fill="#020302" d="M 176.5,297.5 C 178.167,297.5 179.833,297.5 181.5,297.5C 180.167,298.167 178.833,298.833 177.5,299.5C 175.5,299.5 173.5,299.5 171.5,299.5C 171.5,299.167 171.5,298.833 171.5,298.5C 173.415,298.784 175.081,298.451 176.5,297.5 Z"/></g>
</svg>
